<?xml version="1.0" encoding="UTF-8" standalone="no"?>
<!DOCTYPE svg PUBLIC "-//W3C//DTD SVG 1.1//EN"
 "http://www.w3.org/Graphics/SVG/1.1/DTD/svg11.dtd">
<!-- Generated by graphviz version 2.38.0 (20140413.2041)
 -->
<!-- Title: %3 Pages: 1 -->
<svg width="512pt" height="864pt"
 viewBox="0.00 0.00 512.14 864.00" xmlns="http://www.w3.org/2000/svg" xmlns:xlink="http://www.w3.org/1999/xlink">
<g id="graph0" class="graph" transform="scale(0.948408 0.948408) rotate(0) translate(4 907)">
<title>%3</title>
<polygon fill="white" stroke="none" points="-4,4 -4,-907 536,-907 536,4 -4,4"/>
<!-- 2850228420464 -->
<g id="node1" class="node"><title>2850228420464</title>
<polygon fill="#caff70" stroke="black" points="311,-21 221,-21 221,-0 311,-0 311,-21"/>
<text text-anchor="middle" x="266" y="-7.4" font-family="Times New Roman,serif" font-size="12.00">AddBackward0</text>
</g>
<!-- 2850228420176 -->
<g id="node2" class="node"><title>2850228420176</title>
<polygon fill="lightgrey" stroke="black" points="307.5,-78 224.5,-78 224.5,-57 307.5,-57 307.5,-78"/>
<text text-anchor="middle" x="266" y="-64.4" font-family="Times New Roman,serif" font-size="12.00">NegBackward</text>
</g>
<!-- 2850228420176&#45;&gt;2850228420464 -->
<g id="edge1" class="edge"><title>2850228420176&#45;&gt;2850228420464</title>
<path fill="none" stroke="black" d="M266,-56.9197C266,-49.9083 266,-40.1442 266,-31.4652"/>
<polygon fill="black" stroke="black" points="269.5,-31.3408 266,-21.3408 262.5,-31.3409 269.5,-31.3408"/>
</g>
<!-- 2850228835856 -->
<g id="node3" class="node"><title>2850228835856</title>
<polygon fill="lightgrey" stroke="black" points="310,-135 222,-135 222,-114 310,-114 310,-135"/>
<text text-anchor="middle" x="266" y="-121.4" font-family="Times New Roman,serif" font-size="12.00">ViewBackward</text>
</g>
<!-- 2850228835856&#45;&gt;2850228420176 -->
<g id="edge2" class="edge"><title>2850228835856&#45;&gt;2850228420176</title>
<path fill="none" stroke="black" d="M266,-113.92C266,-106.908 266,-97.1442 266,-88.4652"/>
<polygon fill="black" stroke="black" points="269.5,-88.3408 266,-78.3408 262.5,-88.3409 269.5,-88.3408"/>
</g>
<!-- 2850228838064 -->
<g id="node4" class="node"><title>2850228838064</title>
<polygon fill="lightgrey" stroke="black" points="306.5,-192 225.5,-192 225.5,-171 306.5,-171 306.5,-192"/>
<text text-anchor="middle" x="266" y="-178.4" font-family="Times New Roman,serif" font-size="12.00">DotBackward</text>
</g>
<!-- 2850228838064&#45;&gt;2850228835856 -->
<g id="edge3" class="edge"><title>2850228838064&#45;&gt;2850228835856</title>
<path fill="none" stroke="black" d="M266,-170.92C266,-163.908 266,-154.144 266,-145.465"/>
<polygon fill="black" stroke="black" points="269.5,-145.341 266,-135.341 262.5,-145.341 269.5,-145.341"/>
</g>
<!-- 2850228835568 -->
<g id="node5" class="node"><title>2850228835568</title>
<polygon fill="lightgrey" stroke="black" points="311,-249 221,-249 221,-228 311,-228 311,-249"/>
<text text-anchor="middle" x="266" y="-235.4" font-family="Times New Roman,serif" font-size="12.00">StackBackward</text>
</g>
<!-- 2850228835568&#45;&gt;2850228838064 -->
<g id="edge4" class="edge"><title>2850228835568&#45;&gt;2850228838064</title>
<path fill="none" stroke="black" d="M266,-227.92C266,-220.908 266,-211.144 266,-202.465"/>
<polygon fill="black" stroke="black" points="269.5,-202.341 266,-192.341 262.5,-202.341 269.5,-202.341"/>
</g>
<!-- 2850228834416 -->
<g id="node6" class="node"><title>2850228834416</title>
<polygon fill="lightgrey" stroke="black" points="92,-306 0,-306 0,-285 92,-285 92,-306"/>
<text text-anchor="middle" x="46" y="-292.4" font-family="Times New Roman,serif" font-size="12.00">SelectBackward</text>
</g>
<!-- 2850228834416&#45;&gt;2850228835568 -->
<g id="edge5" class="edge"><title>2850228834416&#45;&gt;2850228835568</title>
<path fill="none" stroke="black" d="M84.3211,-284.92C121.432,-275.642 177.824,-261.544 217.927,-251.518"/>
<polygon fill="black" stroke="black" points="218.897,-254.884 227.75,-249.063 217.199,-248.093 218.897,-254.884"/>
</g>
<!-- 2850228838256 -->
<g id="node7" class="node"><title>2850228838256</title>
<polygon fill="lightgrey" stroke="black" points="92,-363 0,-363 0,-342 92,-342 92,-363"/>
<text text-anchor="middle" x="46" y="-349.4" font-family="Times New Roman,serif" font-size="12.00">SelectBackward</text>
</g>
<!-- 2850228838256&#45;&gt;2850228834416 -->
<g id="edge6" class="edge"><title>2850228838256&#45;&gt;2850228834416</title>
<path fill="none" stroke="black" d="M46,-341.92C46,-334.908 46,-325.144 46,-316.465"/>
<polygon fill="black" stroke="black" points="49.5001,-316.341 46,-306.341 42.5001,-316.341 49.5001,-316.341"/>
</g>
<!-- 2850228836192 -->
<g id="node8" class="node"><title>2850228836192</title>
<polygon fill="lightgrey" stroke="black" points="325.5,-420 206.5,-420 206.5,-399 325.5,-399 325.5,-420"/>
<text text-anchor="middle" x="266" y="-406.4" font-family="Times New Roman,serif" font-size="12.00">LogSoftmaxBackward</text>
</g>
<!-- 2850228836192&#45;&gt;2850228838256 -->
<g id="edge7" class="edge"><title>2850228836192&#45;&gt;2850228838256</title>
<path fill="none" stroke="black" d="M227.679,-398.92C190.568,-389.642 134.176,-375.544 94.0735,-365.518"/>
<polygon fill="black" stroke="black" points="94.8007,-362.093 84.2504,-363.063 93.1029,-368.884 94.8007,-362.093"/>
</g>
<!-- 2850228835520 -->
<g id="node24" class="node"><title>2850228835520</title>
<polygon fill="lightgrey" stroke="black" points="202,-363 110,-363 110,-342 202,-342 202,-363"/>
<text text-anchor="middle" x="156" y="-349.4" font-family="Times New Roman,serif" font-size="12.00">SelectBackward</text>
</g>
<!-- 2850228836192&#45;&gt;2850228835520 -->
<g id="edge24" class="edge"><title>2850228836192&#45;&gt;2850228835520</title>
<path fill="none" stroke="black" d="M246.839,-398.92C229.595,-390.297 204.024,-377.512 184.402,-367.701"/>
<polygon fill="black" stroke="black" points="185.82,-364.497 175.31,-363.155 182.689,-370.758 185.82,-364.497"/>
</g>
<!-- 2850228838352 -->
<g id="node26" class="node"><title>2850228838352</title>
<polygon fill="lightgrey" stroke="black" points="312,-363 220,-363 220,-342 312,-342 312,-363"/>
<text text-anchor="middle" x="266" y="-349.4" font-family="Times New Roman,serif" font-size="12.00">SelectBackward</text>
</g>
<!-- 2850228836192&#45;&gt;2850228838352 -->
<g id="edge27" class="edge"><title>2850228836192&#45;&gt;2850228838352</title>
<path fill="none" stroke="black" d="M266,-398.92C266,-391.908 266,-382.144 266,-373.465"/>
<polygon fill="black" stroke="black" points="269.5,-373.341 266,-363.341 262.5,-373.341 269.5,-373.341"/>
</g>
<!-- 2850228837920 -->
<g id="node28" class="node"><title>2850228837920</title>
<polygon fill="lightgrey" stroke="black" points="422,-363 330,-363 330,-342 422,-342 422,-363"/>
<text text-anchor="middle" x="376" y="-349.4" font-family="Times New Roman,serif" font-size="12.00">SelectBackward</text>
</g>
<!-- 2850228836192&#45;&gt;2850228837920 -->
<g id="edge30" class="edge"><title>2850228836192&#45;&gt;2850228837920</title>
<path fill="none" stroke="black" d="M285.161,-398.92C302.405,-390.297 327.976,-377.512 347.598,-367.701"/>
<polygon fill="black" stroke="black" points="349.311,-370.758 356.69,-363.155 346.18,-364.497 349.311,-370.758"/>
</g>
<!-- 2850228835424 -->
<g id="node30" class="node"><title>2850228835424</title>
<polygon fill="lightgrey" stroke="black" points="532,-363 440,-363 440,-342 532,-342 532,-363"/>
<text text-anchor="middle" x="486" y="-349.4" font-family="Times New Roman,serif" font-size="12.00">SelectBackward</text>
</g>
<!-- 2850228836192&#45;&gt;2850228835424 -->
<g id="edge33" class="edge"><title>2850228836192&#45;&gt;2850228835424</title>
<path fill="none" stroke="black" d="M304.321,-398.92C341.432,-389.642 397.824,-375.544 437.927,-365.518"/>
<polygon fill="black" stroke="black" points="438.897,-368.884 447.75,-363.063 437.199,-362.093 438.897,-368.884"/>
</g>
<!-- 2850228836240 -->
<g id="node9" class="node"><title>2850228836240</title>
<polygon fill="lightgrey" stroke="black" points="316.5,-477 215.5,-477 215.5,-456 316.5,-456 316.5,-477"/>
<text text-anchor="middle" x="266" y="-463.4" font-family="Times New Roman,serif" font-size="12.00">AddmmBackward</text>
</g>
<!-- 2850228836240&#45;&gt;2850228836192 -->
<g id="edge8" class="edge"><title>2850228836240&#45;&gt;2850228836192</title>
<path fill="none" stroke="black" d="M266,-455.92C266,-448.908 266,-439.144 266,-430.465"/>
<polygon fill="black" stroke="black" points="269.5,-430.341 266,-420.341 262.5,-430.341 269.5,-430.341"/>
</g>
<!-- 2850228419696 -->
<g id="node10" class="node"><title>2850228419696</title>
<polygon fill="lightblue" stroke="black" points="203,-548 149,-548 149,-513 203,-513 203,-548"/>
<text text-anchor="middle" x="176" y="-520.4" font-family="Times New Roman,serif" font-size="12.00"> (3)</text>
</g>
<!-- 2850228419696&#45;&gt;2850228836240 -->
<g id="edge9" class="edge"><title>2850228419696&#45;&gt;2850228836240</title>
<path fill="none" stroke="black" d="M200.118,-512.885C213.656,-503.559 230.434,-492.001 243.67,-482.883"/>
<polygon fill="black" stroke="black" points="245.934,-485.573 252.184,-477.018 241.963,-479.809 245.934,-485.573"/>
</g>
<!-- 2850228837536 -->
<g id="node11" class="node"><title>2850228837536</title>
<polygon fill="lightgrey" stroke="black" points="311,-541 221,-541 221,-520 311,-520 311,-541"/>
<text text-anchor="middle" x="266" y="-527.4" font-family="Times New Roman,serif" font-size="12.00">ReluBackward0</text>
</g>
<!-- 2850228837536&#45;&gt;2850228836240 -->
<g id="edge10" class="edge"><title>2850228837536&#45;&gt;2850228836240</title>
<path fill="none" stroke="black" d="M266,-519.813C266,-511.218 266,-498.388 266,-487.585"/>
<polygon fill="black" stroke="black" points="269.5,-487.324 266,-477.324 262.5,-487.324 269.5,-487.324"/>
</g>
<!-- 2850228836288 -->
<g id="node12" class="node"><title>2850228836288</title>
<polygon fill="lightgrey" stroke="black" points="316.5,-612 215.5,-612 215.5,-591 316.5,-591 316.5,-612"/>
<text text-anchor="middle" x="266" y="-598.4" font-family="Times New Roman,serif" font-size="12.00">AddmmBackward</text>
</g>
<!-- 2850228836288&#45;&gt;2850228837536 -->
<g id="edge11" class="edge"><title>2850228836288&#45;&gt;2850228837536</title>
<path fill="none" stroke="black" d="M266,-590.906C266,-580.71 266,-564.3 266,-551.308"/>
<polygon fill="black" stroke="black" points="269.5,-551.013 266,-541.013 262.5,-551.013 269.5,-551.013"/>
</g>
<!-- 2850228420512 -->
<g id="node13" class="node"><title>2850228420512</title>
<polygon fill="lightblue" stroke="black" points="203,-690 149,-690 149,-655 203,-655 203,-690"/>
<text text-anchor="middle" x="176" y="-662.4" font-family="Times New Roman,serif" font-size="12.00"> (32)</text>
</g>
<!-- 2850228420512&#45;&gt;2850228836288 -->
<g id="edge12" class="edge"><title>2850228420512&#45;&gt;2850228836288</title>
<path fill="none" stroke="black" d="M197.786,-654.797C212.262,-643.699 231.15,-629.218 245.38,-618.309"/>
<polygon fill="black" stroke="black" points="247.75,-620.902 253.557,-612.04 243.491,-615.347 247.75,-620.902"/>
</g>
<!-- 2850228835040 -->
<g id="node14" class="node"><title>2850228835040</title>
<polygon fill="lightgrey" stroke="black" points="311,-683 221,-683 221,-662 311,-662 311,-683"/>
<text text-anchor="middle" x="266" y="-669.4" font-family="Times New Roman,serif" font-size="12.00">ReluBackward0</text>
</g>
<!-- 2850228835040&#45;&gt;2850228836288 -->
<g id="edge13" class="edge"><title>2850228835040&#45;&gt;2850228836288</title>
<path fill="none" stroke="black" d="M266,-661.906C266,-651.71 266,-635.3 266,-622.308"/>
<polygon fill="black" stroke="black" points="269.5,-622.013 266,-612.013 262.5,-622.013 269.5,-622.013"/>
</g>
<!-- 2850228836912 -->
<g id="node15" class="node"><title>2850228836912</title>
<polygon fill="lightgrey" stroke="black" points="316.5,-754 215.5,-754 215.5,-733 316.5,-733 316.5,-754"/>
<text text-anchor="middle" x="266" y="-740.4" font-family="Times New Roman,serif" font-size="12.00">AddmmBackward</text>
</g>
<!-- 2850228836912&#45;&gt;2850228835040 -->
<g id="edge14" class="edge"><title>2850228836912&#45;&gt;2850228835040</title>
<path fill="none" stroke="black" d="M266,-732.906C266,-722.71 266,-706.3 266,-693.308"/>
<polygon fill="black" stroke="black" points="269.5,-693.013 266,-683.013 262.5,-693.013 269.5,-693.013"/>
</g>
<!-- 2850228418304 -->
<g id="node16" class="node"><title>2850228418304</title>
<polygon fill="lightblue" stroke="black" points="253,-832 199,-832 199,-797 253,-797 253,-832"/>
<text text-anchor="middle" x="226" y="-804.4" font-family="Times New Roman,serif" font-size="12.00"> (64)</text>
</g>
<!-- 2850228418304&#45;&gt;2850228836912 -->
<g id="edge15" class="edge"><title>2850228418304&#45;&gt;2850228836912</title>
<path fill="none" stroke="black" d="M235.683,-796.797C241.631,-786.537 249.255,-773.385 255.37,-762.837"/>
<polygon fill="black" stroke="black" points="258.482,-764.447 260.47,-754.04 252.426,-760.936 258.482,-764.447"/>
</g>
<!-- 2850228836816 -->
<g id="node17" class="node"><title>2850228836816</title>
<polygon fill="lightgrey" stroke="black" points="342.5,-825 271.5,-825 271.5,-804 342.5,-804 342.5,-825"/>
<text text-anchor="middle" x="307" y="-811.4" font-family="Times New Roman,serif" font-size="12.00">TBackward</text>
</g>
<!-- 2850228836816&#45;&gt;2850228836912 -->
<g id="edge16" class="edge"><title>2850228836816&#45;&gt;2850228836912</title>
<path fill="none" stroke="black" d="M301.299,-803.906C294.996,-793.298 284.696,-775.963 276.844,-762.75"/>
<polygon fill="black" stroke="black" points="279.77,-760.822 271.652,-754.013 273.752,-764.397 279.77,-760.822"/>
</g>
<!-- 2850228419408 -->
<g id="node18" class="node"><title>2850228419408</title>
<polygon fill="lightblue" stroke="black" points="334,-903 280,-903 280,-868 334,-868 334,-903"/>
<text text-anchor="middle" x="307" y="-875.4" font-family="Times New Roman,serif" font-size="12.00"> (64, 7)</text>
</g>
<!-- 2850228419408&#45;&gt;2850228836816 -->
<g id="edge17" class="edge"><title>2850228419408&#45;&gt;2850228836816</title>
<path fill="none" stroke="black" d="M307,-867.797C307,-857.956 307,-845.453 307,-835.141"/>
<polygon fill="black" stroke="black" points="310.5,-835.04 307,-825.04 303.5,-835.04 310.5,-835.04"/>
</g>
<!-- 2850228837056 -->
<g id="node19" class="node"><title>2850228837056</title>
<polygon fill="lightgrey" stroke="black" points="400.5,-683 329.5,-683 329.5,-662 400.5,-662 400.5,-683"/>
<text text-anchor="middle" x="365" y="-669.4" font-family="Times New Roman,serif" font-size="12.00">TBackward</text>
</g>
<!-- 2850228837056&#45;&gt;2850228836288 -->
<g id="edge18" class="edge"><title>2850228837056&#45;&gt;2850228836288</title>
<path fill="none" stroke="black" d="M351.234,-661.906C334.832,-650.474 307.221,-631.23 287.882,-617.751"/>
<polygon fill="black" stroke="black" points="289.854,-614.859 279.649,-612.013 285.851,-620.602 289.854,-614.859"/>
</g>
<!-- 2850228418400 -->
<g id="node20" class="node"><title>2850228418400</title>
<polygon fill="lightblue" stroke="black" points="393.5,-761 336.5,-761 336.5,-726 393.5,-726 393.5,-761"/>
<text text-anchor="middle" x="365" y="-733.4" font-family="Times New Roman,serif" font-size="12.00"> (32, 64)</text>
</g>
<!-- 2850228418400&#45;&gt;2850228837056 -->
<g id="edge19" class="edge"><title>2850228418400&#45;&gt;2850228837056</title>
<path fill="none" stroke="black" d="M365,-725.797C365,-715.956 365,-703.453 365,-693.141"/>
<polygon fill="black" stroke="black" points="368.5,-693.04 365,-683.04 361.5,-693.04 368.5,-693.04"/>
</g>
<!-- 2850228835472 -->
<g id="node21" class="node"><title>2850228835472</title>
<polygon fill="lightgrey" stroke="black" points="400.5,-541 329.5,-541 329.5,-520 400.5,-520 400.5,-541"/>
<text text-anchor="middle" x="365" y="-527.4" font-family="Times New Roman,serif" font-size="12.00">TBackward</text>
</g>
<!-- 2850228835472&#45;&gt;2850228836240 -->
<g id="edge20" class="edge"><title>2850228835472&#45;&gt;2850228836240</title>
<path fill="none" stroke="black" d="M349.531,-519.813C333.548,-509.803 308.39,-494.047 289.857,-482.441"/>
<polygon fill="black" stroke="black" points="291.693,-479.461 281.36,-477.119 287.978,-485.394 291.693,-479.461"/>
</g>
<!-- 2850228418256 -->
<g id="node22" class="node"><title>2850228418256</title>
<polygon fill="lightblue" stroke="black" points="392,-619 338,-619 338,-584 392,-584 392,-619"/>
<text text-anchor="middle" x="365" y="-591.4" font-family="Times New Roman,serif" font-size="12.00"> (3, 32)</text>
</g>
<!-- 2850228418256&#45;&gt;2850228835472 -->
<g id="edge21" class="edge"><title>2850228418256&#45;&gt;2850228835472</title>
<path fill="none" stroke="black" d="M365,-583.797C365,-573.956 365,-561.453 365,-551.141"/>
<polygon fill="black" stroke="black" points="368.5,-551.04 365,-541.04 361.5,-551.04 368.5,-551.04"/>
</g>
<!-- 2850228836720 -->
<g id="node23" class="node"><title>2850228836720</title>
<polygon fill="lightgrey" stroke="black" points="202,-306 110,-306 110,-285 202,-285 202,-306"/>
<text text-anchor="middle" x="156" y="-292.4" font-family="Times New Roman,serif" font-size="12.00">SelectBackward</text>
</g>
<!-- 2850228836720&#45;&gt;2850228835568 -->
<g id="edge22" class="edge"><title>2850228836720&#45;&gt;2850228835568</title>
<path fill="none" stroke="black" d="M175.161,-284.92C192.405,-276.297 217.976,-263.512 237.598,-253.701"/>
<polygon fill="black" stroke="black" points="239.311,-256.758 246.69,-249.155 236.18,-250.497 239.311,-256.758"/>
</g>
<!-- 2850228835520&#45;&gt;2850228836720 -->
<g id="edge23" class="edge"><title>2850228835520&#45;&gt;2850228836720</title>
<path fill="none" stroke="black" d="M156,-341.92C156,-334.908 156,-325.144 156,-316.465"/>
<polygon fill="black" stroke="black" points="159.5,-316.341 156,-306.341 152.5,-316.341 159.5,-316.341"/>
</g>
<!-- 2850228836624 -->
<g id="node25" class="node"><title>2850228836624</title>
<polygon fill="lightgrey" stroke="black" points="312,-306 220,-306 220,-285 312,-285 312,-306"/>
<text text-anchor="middle" x="266" y="-292.4" font-family="Times New Roman,serif" font-size="12.00">SelectBackward</text>
</g>
<!-- 2850228836624&#45;&gt;2850228835568 -->
<g id="edge25" class="edge"><title>2850228836624&#45;&gt;2850228835568</title>
<path fill="none" stroke="black" d="M266,-284.92C266,-277.908 266,-268.144 266,-259.465"/>
<polygon fill="black" stroke="black" points="269.5,-259.341 266,-249.341 262.5,-259.341 269.5,-259.341"/>
</g>
<!-- 2850228838352&#45;&gt;2850228836624 -->
<g id="edge26" class="edge"><title>2850228838352&#45;&gt;2850228836624</title>
<path fill="none" stroke="black" d="M266,-341.92C266,-334.908 266,-325.144 266,-316.465"/>
<polygon fill="black" stroke="black" points="269.5,-316.341 266,-306.341 262.5,-316.341 269.5,-316.341"/>
</g>
<!-- 2850228834848 -->
<g id="node27" class="node"><title>2850228834848</title>
<polygon fill="lightgrey" stroke="black" points="422,-306 330,-306 330,-285 422,-285 422,-306"/>
<text text-anchor="middle" x="376" y="-292.4" font-family="Times New Roman,serif" font-size="12.00">SelectBackward</text>
</g>
<!-- 2850228834848&#45;&gt;2850228835568 -->
<g id="edge28" class="edge"><title>2850228834848&#45;&gt;2850228835568</title>
<path fill="none" stroke="black" d="M356.839,-284.92C339.595,-276.297 314.024,-263.512 294.402,-253.701"/>
<polygon fill="black" stroke="black" points="295.82,-250.497 285.31,-249.155 292.689,-256.758 295.82,-250.497"/>
</g>
<!-- 2850228837920&#45;&gt;2850228834848 -->
<g id="edge29" class="edge"><title>2850228837920&#45;&gt;2850228834848</title>
<path fill="none" stroke="black" d="M376,-341.92C376,-334.908 376,-325.144 376,-316.465"/>
<polygon fill="black" stroke="black" points="379.5,-316.341 376,-306.341 372.5,-316.341 379.5,-316.341"/>
</g>
<!-- 2850228834704 -->
<g id="node29" class="node"><title>2850228834704</title>
<polygon fill="lightgrey" stroke="black" points="532,-306 440,-306 440,-285 532,-285 532,-306"/>
<text text-anchor="middle" x="486" y="-292.4" font-family="Times New Roman,serif" font-size="12.00">SelectBackward</text>
</g>
<!-- 2850228834704&#45;&gt;2850228835568 -->
<g id="edge31" class="edge"><title>2850228834704&#45;&gt;2850228835568</title>
<path fill="none" stroke="black" d="M447.679,-284.92C410.568,-275.642 354.176,-261.544 314.073,-251.518"/>
<polygon fill="black" stroke="black" points="314.801,-248.093 304.25,-249.063 313.103,-254.884 314.801,-248.093"/>
</g>
<!-- 2850228835424&#45;&gt;2850228834704 -->
<g id="edge32" class="edge"><title>2850228835424&#45;&gt;2850228834704</title>
<path fill="none" stroke="black" d="M486,-341.92C486,-334.908 486,-325.144 486,-316.465"/>
<polygon fill="black" stroke="black" points="489.5,-316.341 486,-306.341 482.5,-316.341 489.5,-316.341"/>
</g>
</g>
</svg>
