<?xml version="1.0" encoding="UTF-8" standalone="no"?>
<!DOCTYPE svg PUBLIC "-//W3C//DTD SVG 1.1//EN"
 "http://www.w3.org/Graphics/SVG/1.1/DTD/svg11.dtd">
<!-- Generated by graphviz version 2.38.0 (20140413.2041)
 -->
<!-- Title: %3 Pages: 1 -->
<svg width="838pt" height="1167pt"
 viewBox="0.00 0.00 838.18 1167.00" xmlns="http://www.w3.org/2000/svg" xmlns:xlink="http://www.w3.org/1999/xlink">
<g id="graph0" class="graph" transform="scale(1 1) rotate(0) translate(4 1163)">
<title>%3</title>
<polygon fill="white" stroke="none" points="-4,4 -4,-1163 834.176,-1163 834.176,4 -4,4"/>
<!-- 1490481651568 -->
<g id="node1" class="node"><title>1490481651568</title>
<polygon fill="#caff70" stroke="black" points="553.5,-21 463.5,-21 463.5,-0 553.5,-0 553.5,-21"/>
<text text-anchor="middle" x="508.5" y="-7.4" font-family="Times New Roman,serif" font-size="12.00">AddBackward0</text>
</g>
<!-- 1490481651664 -->
<g id="node2" class="node"><title>1490481651664</title>
<polygon fill="lightgrey" stroke="black" points="496.5,-78 406.5,-78 406.5,-57 496.5,-57 496.5,-78"/>
<text text-anchor="middle" x="451.5" y="-64.4" font-family="Times New Roman,serif" font-size="12.00">AddBackward0</text>
</g>
<!-- 1490481651664&#45;&gt;1490481651568 -->
<g id="edge1" class="edge"><title>1490481651664&#45;&gt;1490481651568</title>
<path fill="none" stroke="black" d="M461.429,-56.9197C469.583,-49.0514 481.33,-37.7164 491.049,-28.3385"/>
<polygon fill="black" stroke="black" points="493.535,-30.8032 498.301,-21.3408 488.675,-25.7659 493.535,-30.8032"/>
</g>
<!-- 1490481861056 -->
<g id="node3" class="node"><title>1490481861056</title>
<polygon fill="lightgrey" stroke="black" points="499.5,-135 403.5,-135 403.5,-114 499.5,-114 499.5,-135"/>
<text text-anchor="middle" x="451.5" y="-121.4" font-family="Times New Roman,serif" font-size="12.00">MeanBackward0</text>
</g>
<!-- 1490481861056&#45;&gt;1490481651664 -->
<g id="edge2" class="edge"><title>1490481861056&#45;&gt;1490481651664</title>
<path fill="none" stroke="black" d="M451.5,-113.92C451.5,-106.908 451.5,-97.1442 451.5,-88.4652"/>
<polygon fill="black" stroke="black" points="455,-88.3408 451.5,-78.3408 448,-88.3409 455,-88.3408"/>
</g>
<!-- 1490481860912 -->
<g id="node4" class="node"><title>1490481860912</title>
<polygon fill="lightgrey" stroke="black" points="496.5,-192 406.5,-192 406.5,-171 496.5,-171 496.5,-192"/>
<text text-anchor="middle" x="451.5" y="-178.4" font-family="Times New Roman,serif" font-size="12.00">StackBackward</text>
</g>
<!-- 1490481860912&#45;&gt;1490481861056 -->
<g id="edge3" class="edge"><title>1490481860912&#45;&gt;1490481861056</title>
<path fill="none" stroke="black" d="M451.5,-170.92C451.5,-163.908 451.5,-154.144 451.5,-145.465"/>
<polygon fill="black" stroke="black" points="455,-145.341 451.5,-135.341 448,-145.341 455,-145.341"/>
</g>
<!-- 1490481860864 -->
<g id="node5" class="node"><title>1490481860864</title>
<polygon fill="lightgrey" stroke="black" points="494.5,-249 408.5,-249 408.5,-228 494.5,-228 494.5,-249"/>
<text text-anchor="middle" x="451.5" y="-235.4" font-family="Times New Roman,serif" font-size="12.00">DivBackward0</text>
</g>
<!-- 1490481860864&#45;&gt;1490481860912 -->
<g id="edge4" class="edge"><title>1490481860864&#45;&gt;1490481860912</title>
<path fill="none" stroke="black" d="M451.5,-227.92C451.5,-220.908 451.5,-211.144 451.5,-202.465"/>
<polygon fill="black" stroke="black" points="455,-202.341 451.5,-192.341 448,-202.341 455,-202.341"/>
</g>
<!-- 1490481861152 -->
<g id="node6" class="node"><title>1490481861152</title>
<polygon fill="lightgrey" stroke="black" points="493,-306 410,-306 410,-285 493,-285 493,-306"/>
<text text-anchor="middle" x="451.5" y="-292.4" font-family="Times New Roman,serif" font-size="12.00">NegBackward</text>
</g>
<!-- 1490481861152&#45;&gt;1490481860864 -->
<g id="edge5" class="edge"><title>1490481861152&#45;&gt;1490481860864</title>
<path fill="none" stroke="black" d="M451.5,-284.92C451.5,-277.908 451.5,-268.144 451.5,-259.465"/>
<polygon fill="black" stroke="black" points="455,-259.341 451.5,-249.341 448,-259.341 455,-259.341"/>
</g>
<!-- 1490481861248 -->
<g id="node7" class="node"><title>1490481861248</title>
<polygon fill="lightgrey" stroke="black" points="495.5,-363 407.5,-363 407.5,-342 495.5,-342 495.5,-363"/>
<text text-anchor="middle" x="451.5" y="-349.4" font-family="Times New Roman,serif" font-size="12.00">ViewBackward</text>
</g>
<!-- 1490481861248&#45;&gt;1490481861152 -->
<g id="edge6" class="edge"><title>1490481861248&#45;&gt;1490481861152</title>
<path fill="none" stroke="black" d="M451.5,-341.92C451.5,-334.908 451.5,-325.144 451.5,-316.465"/>
<polygon fill="black" stroke="black" points="455,-316.341 451.5,-306.341 448,-316.341 455,-316.341"/>
</g>
<!-- 1490481861344 -->
<g id="node8" class="node"><title>1490481861344</title>
<polygon fill="lightgrey" stroke="black" points="492,-420 411,-420 411,-399 492,-399 492,-420"/>
<text text-anchor="middle" x="451.5" y="-406.4" font-family="Times New Roman,serif" font-size="12.00">DotBackward</text>
</g>
<!-- 1490481861344&#45;&gt;1490481861248 -->
<g id="edge7" class="edge"><title>1490481861344&#45;&gt;1490481861248</title>
<path fill="none" stroke="black" d="M451.5,-398.92C451.5,-391.908 451.5,-382.144 451.5,-373.465"/>
<polygon fill="black" stroke="black" points="455,-373.341 451.5,-363.341 448,-373.341 455,-373.341"/>
</g>
<!-- 1490481861440 -->
<g id="node9" class="node"><title>1490481861440</title>
<polygon fill="lightgrey" stroke="black" points="385.5,-477 297.5,-477 297.5,-456 385.5,-456 385.5,-477"/>
<text text-anchor="middle" x="341.5" y="-463.4" font-family="Times New Roman,serif" font-size="12.00">SubBackward0</text>
</g>
<!-- 1490481861440&#45;&gt;1490481861344 -->
<g id="edge8" class="edge"><title>1490481861440&#45;&gt;1490481861344</title>
<path fill="none" stroke="black" d="M360.661,-455.92C377.905,-447.297 403.476,-434.512 423.098,-424.701"/>
<polygon fill="black" stroke="black" points="424.811,-427.758 432.19,-420.155 421.68,-421.497 424.811,-427.758"/>
</g>
<!-- 1490481862592 -->
<g id="node55" class="node"><title>1490481862592</title>
<polygon fill="lightgrey" stroke="black" points="387,-420 296,-420 296,-399 387,-399 387,-420"/>
<text text-anchor="middle" x="341.5" y="-406.4" font-family="Times New Roman,serif" font-size="12.00">PowBackward0</text>
</g>
<!-- 1490481861440&#45;&gt;1490481862592 -->
<g id="edge59" class="edge"><title>1490481861440&#45;&gt;1490481862592</title>
<path fill="none" stroke="black" d="M341.5,-455.92C341.5,-448.908 341.5,-439.144 341.5,-430.465"/>
<polygon fill="black" stroke="black" points="345,-430.341 341.5,-420.341 338,-430.341 345,-430.341"/>
</g>
<!-- 1490481861584 -->
<g id="node10" class="node"><title>1490481861584</title>
<polygon fill="lightgrey" stroke="black" points="164.5,-534 76.5,-534 76.5,-513 164.5,-513 164.5,-534"/>
<text text-anchor="middle" x="120.5" y="-520.4" font-family="Times New Roman,serif" font-size="12.00">ViewBackward</text>
</g>
<!-- 1490481861584&#45;&gt;1490481861440 -->
<g id="edge9" class="edge"><title>1490481861584&#45;&gt;1490481861440</title>
<path fill="none" stroke="black" d="M158.743,-512.983C195.985,-503.714 252.726,-489.593 293.096,-479.546"/>
<polygon fill="black" stroke="black" points="294.126,-482.897 302.985,-477.085 292.435,-476.104 294.126,-482.897"/>
</g>
<!-- 1490481861680 -->
<g id="node11" class="node"><title>1490481861680</title>
<polygon fill="lightgrey" stroke="black" points="167,-591 66,-591 66,-570 167,-570 167,-591"/>
<text text-anchor="middle" x="116.5" y="-577.4" font-family="Times New Roman,serif" font-size="12.00">AddmmBackward</text>
</g>
<!-- 1490481861680&#45;&gt;1490481861584 -->
<g id="edge10" class="edge"><title>1490481861680&#45;&gt;1490481861584</title>
<path fill="none" stroke="black" d="M117.197,-569.92C117.707,-562.908 118.417,-553.144 119.048,-544.465"/>
<polygon fill="black" stroke="black" points="122.55,-544.568 119.784,-534.341 115.568,-544.061 122.55,-544.568"/>
</g>
<!-- 1490481861776 -->
<g id="node12" class="node"><title>1490481861776</title>
<polygon fill="lightblue" stroke="black" points="143.5,-662 89.5,-662 89.5,-627 143.5,-627 143.5,-662"/>
<text text-anchor="middle" x="116.5" y="-634.4" font-family="Times New Roman,serif" font-size="12.00"> (1)</text>
</g>
<!-- 1490481861776&#45;&gt;1490481861680 -->
<g id="edge11" class="edge"><title>1490481861776&#45;&gt;1490481861680</title>
<path fill="none" stroke="black" d="M116.5,-626.885C116.5,-618.994 116.5,-609.505 116.5,-601.248"/>
<polygon fill="black" stroke="black" points="120,-601.018 116.5,-591.018 113,-601.018 120,-601.018"/>
</g>
<!-- 1490481861824 -->
<g id="node13" class="node"><title>1490481861824</title>
<polygon fill="lightgrey" stroke="black" points="251.5,-655 161.5,-655 161.5,-634 251.5,-634 251.5,-655"/>
<text text-anchor="middle" x="206.5" y="-641.4" font-family="Times New Roman,serif" font-size="12.00">ReluBackward0</text>
</g>
<!-- 1490481861824&#45;&gt;1490481861680 -->
<g id="edge12" class="edge"><title>1490481861824&#45;&gt;1490481861680</title>
<path fill="none" stroke="black" d="M192.438,-633.813C178.171,-623.985 155.865,-608.618 139.113,-597.078"/>
<polygon fill="black" stroke="black" points="140.684,-593.91 130.464,-591.119 136.713,-599.675 140.684,-593.91"/>
</g>
<!-- 1490481862160 -->
<g id="node14" class="node"><title>1490481862160</title>
<polygon fill="lightgrey" stroke="black" points="257,-726 156,-726 156,-705 257,-705 257,-726"/>
<text text-anchor="middle" x="206.5" y="-712.4" font-family="Times New Roman,serif" font-size="12.00">AddmmBackward</text>
</g>
<!-- 1490481862160&#45;&gt;1490481861824 -->
<g id="edge13" class="edge"><title>1490481862160&#45;&gt;1490481861824</title>
<path fill="none" stroke="black" d="M206.5,-704.906C206.5,-694.71 206.5,-678.3 206.5,-665.308"/>
<polygon fill="black" stroke="black" points="210,-665.013 206.5,-655.013 203,-665.013 210,-665.013"/>
</g>
<!-- 1490481862208 -->
<g id="node15" class="node"><title>1490481862208</title>
<polygon fill="lightblue" stroke="black" points="143.5,-804 89.5,-804 89.5,-769 143.5,-769 143.5,-804"/>
<text text-anchor="middle" x="116.5" y="-776.4" font-family="Times New Roman,serif" font-size="12.00"> (32)</text>
</g>
<!-- 1490481862208&#45;&gt;1490481862160 -->
<g id="edge14" class="edge"><title>1490481862208&#45;&gt;1490481862160</title>
<path fill="none" stroke="black" d="M138.286,-768.797C152.762,-757.699 171.65,-743.218 185.88,-732.309"/>
<polygon fill="black" stroke="black" points="188.25,-734.902 194.057,-726.04 183.991,-729.347 188.25,-734.902"/>
</g>
<!-- 1490481862256 -->
<g id="node16" class="node"><title>1490481862256</title>
<polygon fill="lightgrey" stroke="black" points="251.5,-797 161.5,-797 161.5,-776 251.5,-776 251.5,-797"/>
<text text-anchor="middle" x="206.5" y="-783.4" font-family="Times New Roman,serif" font-size="12.00">ReluBackward0</text>
</g>
<!-- 1490481862256&#45;&gt;1490481862160 -->
<g id="edge15" class="edge"><title>1490481862256&#45;&gt;1490481862160</title>
<path fill="none" stroke="black" d="M206.5,-775.906C206.5,-765.71 206.5,-749.3 206.5,-736.308"/>
<polygon fill="black" stroke="black" points="210,-736.013 206.5,-726.013 203,-736.013 210,-736.013"/>
</g>
<!-- 1490481861968 -->
<g id="node17" class="node"><title>1490481861968</title>
<polygon fill="lightgrey" stroke="black" points="257,-868 156,-868 156,-847 257,-847 257,-868"/>
<text text-anchor="middle" x="206.5" y="-854.4" font-family="Times New Roman,serif" font-size="12.00">AddmmBackward</text>
</g>
<!-- 1490481861968&#45;&gt;1490481862256 -->
<g id="edge16" class="edge"><title>1490481861968&#45;&gt;1490481862256</title>
<path fill="none" stroke="black" d="M206.5,-846.906C206.5,-836.71 206.5,-820.3 206.5,-807.308"/>
<polygon fill="black" stroke="black" points="210,-807.013 206.5,-797.013 203,-807.013 210,-807.013"/>
</g>
<!-- 1490481862352 -->
<g id="node18" class="node"><title>1490481862352</title>
<polygon fill="lightblue" stroke="black" points="274.5,-946 220.5,-946 220.5,-911 274.5,-911 274.5,-946"/>
<text text-anchor="middle" x="247.5" y="-918.4" font-family="Times New Roman,serif" font-size="12.00"> (64)</text>
</g>
<!-- 1490481862352&#45;&gt;1490481861968 -->
<g id="edge17" class="edge"><title>1490481862352&#45;&gt;1490481861968</title>
<path fill="none" stroke="black" d="M237.575,-910.797C231.478,-900.537 223.663,-887.385 217.396,-876.837"/>
<polygon fill="black" stroke="black" points="220.286,-874.849 212.169,-868.04 214.268,-878.425 220.286,-874.849"/>
</g>
<!-- 1490481862400 -->
<g id="node19" class="node"><title>1490481862400</title>
<polygon fill="lightgrey" stroke="black" points="202,-939 131,-939 131,-918 202,-918 202,-939"/>
<text text-anchor="middle" x="166.5" y="-925.4" font-family="Times New Roman,serif" font-size="12.00">TBackward</text>
</g>
<!-- 1490481862400&#45;&gt;1490481861968 -->
<g id="edge18" class="edge"><title>1490481862400&#45;&gt;1490481861968</title>
<path fill="none" stroke="black" d="M172.062,-917.906C178.211,-907.298 188.26,-889.963 195.92,-876.75"/>
<polygon fill="black" stroke="black" points="198.998,-878.419 200.985,-868.013 192.942,-874.909 198.998,-878.419"/>
</g>
<!-- 1490481862544 -->
<g id="node20" class="node"><title>1490481862544</title>
<polygon fill="lightblue" stroke="black" points="193.5,-1017 139.5,-1017 139.5,-982 193.5,-982 193.5,-1017"/>
<text text-anchor="middle" x="166.5" y="-989.4" font-family="Times New Roman,serif" font-size="12.00"> (64, 7)</text>
</g>
<!-- 1490481862544&#45;&gt;1490481862400 -->
<g id="edge19" class="edge"><title>1490481862544&#45;&gt;1490481862400</title>
<path fill="none" stroke="black" d="M166.5,-981.797C166.5,-971.956 166.5,-959.453 166.5,-949.141"/>
<polygon fill="black" stroke="black" points="170,-949.04 166.5,-939.04 163,-949.04 170,-949.04"/>
</g>
<!-- 1490481862064 -->
<g id="node21" class="node"><title>1490481862064</title>
<polygon fill="lightgrey" stroke="black" points="341,-797 270,-797 270,-776 341,-776 341,-797"/>
<text text-anchor="middle" x="305.5" y="-783.4" font-family="Times New Roman,serif" font-size="12.00">TBackward</text>
</g>
<!-- 1490481862064&#45;&gt;1490481862160 -->
<g id="edge20" class="edge"><title>1490481862064&#45;&gt;1490481862160</title>
<path fill="none" stroke="black" d="M291.734,-775.906C275.332,-764.474 247.721,-745.23 228.382,-731.751"/>
<polygon fill="black" stroke="black" points="230.354,-728.859 220.149,-726.013 226.351,-734.602 230.354,-728.859"/>
</g>
<!-- 1490481862304 -->
<g id="node22" class="node"><title>1490481862304</title>
<polygon fill="lightblue" stroke="black" points="334,-875 277,-875 277,-840 334,-840 334,-875"/>
<text text-anchor="middle" x="305.5" y="-847.4" font-family="Times New Roman,serif" font-size="12.00"> (32, 64)</text>
</g>
<!-- 1490481862304&#45;&gt;1490481862064 -->
<g id="edge21" class="edge"><title>1490481862304&#45;&gt;1490481862064</title>
<path fill="none" stroke="black" d="M305.5,-839.797C305.5,-829.956 305.5,-817.453 305.5,-807.141"/>
<polygon fill="black" stroke="black" points="309,-807.04 305.5,-797.04 302,-807.04 309,-807.04"/>
</g>
<!-- 1490481861872 -->
<g id="node23" class="node"><title>1490481861872</title>
<polygon fill="lightgrey" stroke="black" points="71,-655 0,-655 0,-634 71,-634 71,-655"/>
<text text-anchor="middle" x="35.5" y="-641.4" font-family="Times New Roman,serif" font-size="12.00">TBackward</text>
</g>
<!-- 1490481861872&#45;&gt;1490481861680 -->
<g id="edge22" class="edge"><title>1490481861872&#45;&gt;1490481861680</title>
<path fill="none" stroke="black" d="M48.1563,-633.813C60.8768,-624.076 80.7004,-608.902 95.7284,-597.399"/>
<polygon fill="black" stroke="black" points="98.1192,-599.977 103.933,-591.119 93.8644,-594.418 98.1192,-599.977"/>
</g>
<!-- 1490481862112 -->
<g id="node24" class="node"><title>1490481862112</title>
<polygon fill="lightblue" stroke="black" points="62.5,-733 8.5,-733 8.5,-698 62.5,-698 62.5,-733"/>
<text text-anchor="middle" x="35.5" y="-705.4" font-family="Times New Roman,serif" font-size="12.00"> (1, 32)</text>
</g>
<!-- 1490481862112&#45;&gt;1490481861872 -->
<g id="edge23" class="edge"><title>1490481862112&#45;&gt;1490481861872</title>
<path fill="none" stroke="black" d="M35.5,-697.797C35.5,-687.956 35.5,-675.453 35.5,-665.141"/>
<polygon fill="black" stroke="black" points="39.0001,-665.04 35.5,-655.04 32.0001,-665.04 39.0001,-665.04"/>
</g>
<!-- 1490481861488 -->
<g id="node25" class="node"><title>1490481861488</title>
<polygon fill="lightgrey" stroke="black" points="496.5,-477 406.5,-477 406.5,-456 496.5,-456 496.5,-477"/>
<text text-anchor="middle" x="451.5" y="-463.4" font-family="Times New Roman,serif" font-size="12.00">StackBackward</text>
</g>
<!-- 1490481861488&#45;&gt;1490481861344 -->
<g id="edge24" class="edge"><title>1490481861488&#45;&gt;1490481861344</title>
<path fill="none" stroke="black" d="M451.5,-455.92C451.5,-448.908 451.5,-439.144 451.5,-430.465"/>
<polygon fill="black" stroke="black" points="455,-430.341 451.5,-420.341 448,-430.341 455,-430.341"/>
</g>
<!-- 1490481861632 -->
<g id="node26" class="node"><title>1490481861632</title>
<polygon fill="lightgrey" stroke="black" points="497.5,-534 405.5,-534 405.5,-513 497.5,-513 497.5,-534"/>
<text text-anchor="middle" x="451.5" y="-520.4" font-family="Times New Roman,serif" font-size="12.00">SelectBackward</text>
</g>
<!-- 1490481861632&#45;&gt;1490481861488 -->
<g id="edge25" class="edge"><title>1490481861632&#45;&gt;1490481861488</title>
<path fill="none" stroke="black" d="M451.5,-512.92C451.5,-505.908 451.5,-496.144 451.5,-487.465"/>
<polygon fill="black" stroke="black" points="455,-487.341 451.5,-477.341 448,-487.341 455,-487.341"/>
</g>
<!-- 1490481862688 -->
<g id="node27" class="node"><title>1490481862688</title>
<polygon fill="lightgrey" stroke="black" points="497.5,-591 405.5,-591 405.5,-570 497.5,-570 497.5,-591"/>
<text text-anchor="middle" x="451.5" y="-577.4" font-family="Times New Roman,serif" font-size="12.00">SelectBackward</text>
</g>
<!-- 1490481862688&#45;&gt;1490481861632 -->
<g id="edge26" class="edge"><title>1490481862688&#45;&gt;1490481861632</title>
<path fill="none" stroke="black" d="M451.5,-569.92C451.5,-562.908 451.5,-553.144 451.5,-544.465"/>
<polygon fill="black" stroke="black" points="455,-544.341 451.5,-534.341 448,-544.341 455,-544.341"/>
</g>
<!-- 1490481862784 -->
<g id="node28" class="node"><title>1490481862784</title>
<polygon fill="lightgrey" stroke="black" points="621,-655 502,-655 502,-634 621,-634 621,-655"/>
<text text-anchor="middle" x="561.5" y="-641.4" font-family="Times New Roman,serif" font-size="12.00">LogSoftmaxBackward</text>
</g>
<!-- 1490481862784&#45;&gt;1490481862688 -->
<g id="edge27" class="edge"><title>1490481862784&#45;&gt;1490481862688</title>
<path fill="none" stroke="black" d="M544.313,-633.813C526.392,-623.712 498.091,-607.76 477.448,-596.125"/>
<polygon fill="black" stroke="black" points="478.997,-592.981 468.567,-591.119 475.56,-599.079 478.997,-592.981"/>
</g>
<!-- 1490481862736 -->
<g id="node44" class="node"><title>1490481862736</title>
<polygon fill="lightgrey" stroke="black" points="607.5,-591 515.5,-591 515.5,-570 607.5,-570 607.5,-591"/>
<text text-anchor="middle" x="561.5" y="-577.4" font-family="Times New Roman,serif" font-size="12.00">SelectBackward</text>
</g>
<!-- 1490481862784&#45;&gt;1490481862736 -->
<g id="edge44" class="edge"><title>1490481862784&#45;&gt;1490481862736</title>
<path fill="none" stroke="black" d="M561.5,-633.813C561.5,-625.218 561.5,-612.388 561.5,-601.585"/>
<polygon fill="black" stroke="black" points="565,-601.324 561.5,-591.324 558,-601.324 565,-601.324"/>
</g>
<!-- 1490481862832 -->
<g id="node46" class="node"><title>1490481862832</title>
<polygon fill="lightgrey" stroke="black" points="717.5,-591 625.5,-591 625.5,-570 717.5,-570 717.5,-591"/>
<text text-anchor="middle" x="671.5" y="-577.4" font-family="Times New Roman,serif" font-size="12.00">SelectBackward</text>
</g>
<!-- 1490481862784&#45;&gt;1490481862832 -->
<g id="edge47" class="edge"><title>1490481862784&#45;&gt;1490481862832</title>
<path fill="none" stroke="black" d="M578.688,-633.813C596.608,-623.712 624.909,-607.76 645.552,-596.125"/>
<polygon fill="black" stroke="black" points="647.44,-599.079 654.433,-591.119 644.003,-592.981 647.44,-599.079"/>
</g>
<!-- 1490481862928 -->
<g id="node48" class="node"><title>1490481862928</title>
<polygon fill="lightgrey" stroke="black" points="277.5,-591 185.5,-591 185.5,-570 277.5,-570 277.5,-591"/>
<text text-anchor="middle" x="231.5" y="-577.4" font-family="Times New Roman,serif" font-size="12.00">SelectBackward</text>
</g>
<!-- 1490481862784&#45;&gt;1490481862928 -->
<g id="edge50" class="edge"><title>1490481862784&#45;&gt;1490481862928</title>
<path fill="none" stroke="black" d="M510.661,-633.948C450.376,-622.622 350.214,-603.804 287.682,-592.055"/>
<polygon fill="black" stroke="black" points="288.076,-588.568 277.602,-590.162 286.784,-595.448 288.076,-588.568"/>
</g>
<!-- 1490481863120 -->
<g id="node50" class="node"><title>1490481863120</title>
<polygon fill="lightgrey" stroke="black" points="387.5,-591 295.5,-591 295.5,-570 387.5,-570 387.5,-591"/>
<text text-anchor="middle" x="341.5" y="-577.4" font-family="Times New Roman,serif" font-size="12.00">SelectBackward</text>
</g>
<!-- 1490481862784&#45;&gt;1490481863120 -->
<g id="edge53" class="edge"><title>1490481862784&#45;&gt;1490481863120</title>
<path fill="none" stroke="black" d="M527.607,-633.948C489.333,-623.162 426.949,-605.581 385.082,-593.782"/>
<polygon fill="black" stroke="black" points="386.006,-590.406 375.431,-591.062 384.107,-597.144 386.006,-590.406"/>
</g>
<!-- 1490481863936 -->
<g id="node61" class="node"><title>1490481863936</title>
<polygon fill="lightgrey" stroke="black" points="819,-591 736,-591 736,-570 819,-570 819,-591"/>
<text text-anchor="middle" x="777.5" y="-577.4" font-family="Times New Roman,serif" font-size="12.00">NegBackward</text>
</g>
<!-- 1490481862784&#45;&gt;1490481863936 -->
<g id="edge66" class="edge"><title>1490481862784&#45;&gt;1490481863936</title>
<path fill="none" stroke="black" d="M594.777,-633.948C632.275,-623.185 693.347,-605.655 734.45,-593.857"/>
<polygon fill="black" stroke="black" points="735.539,-597.186 744.186,-591.062 733.608,-590.457 735.539,-597.186"/>
</g>
<!-- 1490481862880 -->
<g id="node29" class="node"><title>1490481862880</title>
<polygon fill="lightgrey" stroke="black" points="676,-726 575,-726 575,-705 676,-705 676,-726"/>
<text text-anchor="middle" x="625.5" y="-712.4" font-family="Times New Roman,serif" font-size="12.00">AddmmBackward</text>
</g>
<!-- 1490481862880&#45;&gt;1490481862784 -->
<g id="edge28" class="edge"><title>1490481862880&#45;&gt;1490481862784</title>
<path fill="none" stroke="black" d="M616.601,-704.906C606.475,-693.989 589.742,-675.948 577.367,-662.607"/>
<polygon fill="black" stroke="black" points="579.69,-659.964 570.323,-655.013 574.558,-664.725 579.69,-659.964"/>
</g>
<!-- 1490481863984 -->
<g id="node62" class="node"><title>1490481863984</title>
<polygon fill="lightgrey" stroke="black" points="819,-655 718,-655 718,-634 819,-634 819,-655"/>
<text text-anchor="middle" x="768.5" y="-641.4" font-family="Times New Roman,serif" font-size="12.00">SoftmaxBackward</text>
</g>
<!-- 1490481862880&#45;&gt;1490481863984 -->
<g id="edge68" class="edge"><title>1490481862880&#45;&gt;1490481863984</title>
<path fill="none" stroke="black" d="M645.384,-704.906C669.823,-693.114 711.489,-673.009 739.498,-659.494"/>
<polygon fill="black" stroke="black" points="741.3,-662.511 748.785,-655.013 738.258,-656.206 741.3,-662.511"/>
</g>
<!-- 1490481862976 -->
<g id="node30" class="node"><title>1490481862976</title>
<polygon fill="lightblue" stroke="black" points="562.5,-804 508.5,-804 508.5,-769 562.5,-769 562.5,-804"/>
<text text-anchor="middle" x="535.5" y="-776.4" font-family="Times New Roman,serif" font-size="12.00"> (3)</text>
</g>
<!-- 1490481862976&#45;&gt;1490481862880 -->
<g id="edge29" class="edge"><title>1490481862976&#45;&gt;1490481862880</title>
<path fill="none" stroke="black" d="M557.286,-768.797C571.762,-757.699 590.65,-743.218 604.88,-732.309"/>
<polygon fill="black" stroke="black" points="607.25,-734.902 613.057,-726.04 602.991,-729.347 607.25,-734.902"/>
</g>
<!-- 1490481863024 -->
<g id="node31" class="node"><title>1490481863024</title>
<polygon fill="lightgrey" stroke="black" points="670.5,-797 580.5,-797 580.5,-776 670.5,-776 670.5,-797"/>
<text text-anchor="middle" x="625.5" y="-783.4" font-family="Times New Roman,serif" font-size="12.00">ReluBackward0</text>
</g>
<!-- 1490481863024&#45;&gt;1490481862880 -->
<g id="edge30" class="edge"><title>1490481863024&#45;&gt;1490481862880</title>
<path fill="none" stroke="black" d="M625.5,-775.906C625.5,-765.71 625.5,-749.3 625.5,-736.308"/>
<polygon fill="black" stroke="black" points="629,-736.013 625.5,-726.013 622,-736.013 629,-736.013"/>
</g>
<!-- 1490481863168 -->
<g id="node32" class="node"><title>1490481863168</title>
<polygon fill="lightgrey" stroke="black" points="676,-868 575,-868 575,-847 676,-847 676,-868"/>
<text text-anchor="middle" x="625.5" y="-854.4" font-family="Times New Roman,serif" font-size="12.00">AddmmBackward</text>
</g>
<!-- 1490481863168&#45;&gt;1490481863024 -->
<g id="edge31" class="edge"><title>1490481863168&#45;&gt;1490481863024</title>
<path fill="none" stroke="black" d="M625.5,-846.906C625.5,-836.71 625.5,-820.3 625.5,-807.308"/>
<polygon fill="black" stroke="black" points="629,-807.013 625.5,-797.013 622,-807.013 629,-807.013"/>
</g>
<!-- 1490481863264 -->
<g id="node33" class="node"><title>1490481863264</title>
<polygon fill="lightblue" stroke="black" points="652.5,-946 598.5,-946 598.5,-911 652.5,-911 652.5,-946"/>
<text text-anchor="middle" x="625.5" y="-918.4" font-family="Times New Roman,serif" font-size="12.00"> (32)</text>
</g>
<!-- 1490481863264&#45;&gt;1490481863168 -->
<g id="edge32" class="edge"><title>1490481863264&#45;&gt;1490481863168</title>
<path fill="none" stroke="black" d="M625.5,-910.797C625.5,-900.956 625.5,-888.453 625.5,-878.141"/>
<polygon fill="black" stroke="black" points="629,-878.04 625.5,-868.04 622,-878.04 629,-878.04"/>
</g>
<!-- 1490481863312 -->
<g id="node34" class="node"><title>1490481863312</title>
<polygon fill="lightgrey" stroke="black" points="760.5,-939 670.5,-939 670.5,-918 760.5,-918 760.5,-939"/>
<text text-anchor="middle" x="715.5" y="-925.4" font-family="Times New Roman,serif" font-size="12.00">ReluBackward0</text>
</g>
<!-- 1490481863312&#45;&gt;1490481863168 -->
<g id="edge33" class="edge"><title>1490481863312&#45;&gt;1490481863168</title>
<path fill="none" stroke="black" d="M702.986,-917.906C688.209,-906.577 663.426,-887.576 645.87,-874.117"/>
<polygon fill="black" stroke="black" points="647.973,-871.319 637.908,-868.013 643.714,-876.875 647.973,-871.319"/>
</g>
<!-- 1490481863456 -->
<g id="node35" class="node"><title>1490481863456</title>
<polygon fill="lightgrey" stroke="black" points="766,-1010 665,-1010 665,-989 766,-989 766,-1010"/>
<text text-anchor="middle" x="715.5" y="-996.4" font-family="Times New Roman,serif" font-size="12.00">AddmmBackward</text>
</g>
<!-- 1490481863456&#45;&gt;1490481863312 -->
<g id="edge34" class="edge"><title>1490481863456&#45;&gt;1490481863312</title>
<path fill="none" stroke="black" d="M715.5,-988.906C715.5,-978.71 715.5,-962.3 715.5,-949.308"/>
<polygon fill="black" stroke="black" points="719,-949.013 715.5,-939.013 712,-949.013 719,-949.013"/>
</g>
<!-- 1490481863552 -->
<g id="node36" class="node"><title>1490481863552</title>
<polygon fill="lightblue" stroke="black" points="701.5,-1088 647.5,-1088 647.5,-1053 701.5,-1053 701.5,-1088"/>
<text text-anchor="middle" x="674.5" y="-1060.4" font-family="Times New Roman,serif" font-size="12.00"> (64)</text>
</g>
<!-- 1490481863552&#45;&gt;1490481863456 -->
<g id="edge35" class="edge"><title>1490481863552&#45;&gt;1490481863456</title>
<path fill="none" stroke="black" d="M684.425,-1052.8C690.522,-1042.54 698.337,-1029.38 704.604,-1018.84"/>
<polygon fill="black" stroke="black" points="707.732,-1020.42 709.831,-1010.04 701.714,-1016.85 707.732,-1020.42"/>
</g>
<!-- 1490481863600 -->
<g id="node37" class="node"><title>1490481863600</title>
<polygon fill="lightgrey" stroke="black" points="791,-1081 720,-1081 720,-1060 791,-1060 791,-1081"/>
<text text-anchor="middle" x="755.5" y="-1067.4" font-family="Times New Roman,serif" font-size="12.00">TBackward</text>
</g>
<!-- 1490481863600&#45;&gt;1490481863456 -->
<g id="edge36" class="edge"><title>1490481863600&#45;&gt;1490481863456</title>
<path fill="none" stroke="black" d="M749.938,-1059.91C743.789,-1049.3 733.74,-1031.96 726.08,-1018.75"/>
<polygon fill="black" stroke="black" points="729.058,-1016.91 721.015,-1010.01 723.002,-1020.42 729.058,-1016.91"/>
</g>
<!-- 1490481863744 -->
<g id="node38" class="node"><title>1490481863744</title>
<polygon fill="lightblue" stroke="black" points="782.5,-1159 728.5,-1159 728.5,-1124 782.5,-1124 782.5,-1159"/>
<text text-anchor="middle" x="755.5" y="-1131.4" font-family="Times New Roman,serif" font-size="12.00"> (64, 7)</text>
</g>
<!-- 1490481863744&#45;&gt;1490481863600 -->
<g id="edge37" class="edge"><title>1490481863744&#45;&gt;1490481863600</title>
<path fill="none" stroke="black" d="M755.5,-1123.8C755.5,-1113.96 755.5,-1101.45 755.5,-1091.14"/>
<polygon fill="black" stroke="black" points="759,-1091.04 755.5,-1081.04 752,-1091.04 759,-1091.04"/>
</g>
<!-- 1490481863360 -->
<g id="node39" class="node"><title>1490481863360</title>
<polygon fill="lightgrey" stroke="black" points="580,-939 509,-939 509,-918 580,-918 580,-939"/>
<text text-anchor="middle" x="544.5" y="-925.4" font-family="Times New Roman,serif" font-size="12.00">TBackward</text>
</g>
<!-- 1490481863360&#45;&gt;1490481863168 -->
<g id="edge38" class="edge"><title>1490481863360&#45;&gt;1490481863168</title>
<path fill="none" stroke="black" d="M555.763,-917.906C568.82,-906.783 590.559,-888.265 606.299,-874.856"/>
<polygon fill="black" stroke="black" points="608.99,-877.162 614.333,-868.013 604.451,-871.833 608.99,-877.162"/>
</g>
<!-- 1490481863504 -->
<g id="node40" class="node"><title>1490481863504</title>
<polygon fill="lightblue" stroke="black" points="573,-1017 516,-1017 516,-982 573,-982 573,-1017"/>
<text text-anchor="middle" x="544.5" y="-989.4" font-family="Times New Roman,serif" font-size="12.00"> (32, 64)</text>
</g>
<!-- 1490481863504&#45;&gt;1490481863360 -->
<g id="edge39" class="edge"><title>1490481863504&#45;&gt;1490481863360</title>
<path fill="none" stroke="black" d="M544.5,-981.797C544.5,-971.956 544.5,-959.453 544.5,-949.141"/>
<polygon fill="black" stroke="black" points="548,-949.04 544.5,-939.04 541,-949.04 548,-949.04"/>
</g>
<!-- 1490481863072 -->
<g id="node41" class="node"><title>1490481863072</title>
<polygon fill="lightgrey" stroke="black" points="760,-797 689,-797 689,-776 760,-776 760,-797"/>
<text text-anchor="middle" x="724.5" y="-783.4" font-family="Times New Roman,serif" font-size="12.00">TBackward</text>
</g>
<!-- 1490481863072&#45;&gt;1490481862880 -->
<g id="edge40" class="edge"><title>1490481863072&#45;&gt;1490481862880</title>
<path fill="none" stroke="black" d="M710.734,-775.906C694.332,-764.474 666.721,-745.23 647.382,-731.751"/>
<polygon fill="black" stroke="black" points="649.354,-728.859 639.149,-726.013 645.351,-734.602 649.354,-728.859"/>
</g>
<!-- 1490481863216 -->
<g id="node42" class="node"><title>1490481863216</title>
<polygon fill="lightblue" stroke="black" points="751.5,-875 697.5,-875 697.5,-840 751.5,-840 751.5,-875"/>
<text text-anchor="middle" x="724.5" y="-847.4" font-family="Times New Roman,serif" font-size="12.00"> (3, 32)</text>
</g>
<!-- 1490481863216&#45;&gt;1490481863072 -->
<g id="edge41" class="edge"><title>1490481863216&#45;&gt;1490481863072</title>
<path fill="none" stroke="black" d="M724.5,-839.797C724.5,-829.956 724.5,-817.453 724.5,-807.141"/>
<polygon fill="black" stroke="black" points="728,-807.04 724.5,-797.04 721,-807.04 728,-807.04"/>
</g>
<!-- 1490481861728 -->
<g id="node43" class="node"><title>1490481861728</title>
<polygon fill="lightgrey" stroke="black" points="607.5,-534 515.5,-534 515.5,-513 607.5,-513 607.5,-534"/>
<text text-anchor="middle" x="561.5" y="-520.4" font-family="Times New Roman,serif" font-size="12.00">SelectBackward</text>
</g>
<!-- 1490481861728&#45;&gt;1490481861488 -->
<g id="edge42" class="edge"><title>1490481861728&#45;&gt;1490481861488</title>
<path fill="none" stroke="black" d="M542.339,-512.92C525.095,-504.297 499.524,-491.512 479.902,-481.701"/>
<polygon fill="black" stroke="black" points="481.32,-478.497 470.81,-477.155 478.189,-484.758 481.32,-478.497"/>
</g>
<!-- 1490481862736&#45;&gt;1490481861728 -->
<g id="edge43" class="edge"><title>1490481862736&#45;&gt;1490481861728</title>
<path fill="none" stroke="black" d="M561.5,-569.92C561.5,-562.908 561.5,-553.144 561.5,-544.465"/>
<polygon fill="black" stroke="black" points="565,-544.341 561.5,-534.341 558,-544.341 565,-544.341"/>
</g>
<!-- 1490481861920 -->
<g id="node45" class="node"><title>1490481861920</title>
<polygon fill="lightgrey" stroke="black" points="717.5,-534 625.5,-534 625.5,-513 717.5,-513 717.5,-534"/>
<text text-anchor="middle" x="671.5" y="-520.4" font-family="Times New Roman,serif" font-size="12.00">SelectBackward</text>
</g>
<!-- 1490481861920&#45;&gt;1490481861488 -->
<g id="edge45" class="edge"><title>1490481861920&#45;&gt;1490481861488</title>
<path fill="none" stroke="black" d="M633.179,-512.92C596.068,-503.642 539.676,-489.544 499.573,-479.518"/>
<polygon fill="black" stroke="black" points="500.301,-476.093 489.75,-477.063 498.603,-482.884 500.301,-476.093"/>
</g>
<!-- 1490481862832&#45;&gt;1490481861920 -->
<g id="edge46" class="edge"><title>1490481862832&#45;&gt;1490481861920</title>
<path fill="none" stroke="black" d="M671.5,-569.92C671.5,-562.908 671.5,-553.144 671.5,-544.465"/>
<polygon fill="black" stroke="black" points="675,-544.341 671.5,-534.341 668,-544.341 675,-544.341"/>
</g>
<!-- 1490481862016 -->
<g id="node47" class="node"><title>1490481862016</title>
<polygon fill="lightgrey" stroke="black" points="277.5,-534 185.5,-534 185.5,-513 277.5,-513 277.5,-534"/>
<text text-anchor="middle" x="231.5" y="-520.4" font-family="Times New Roman,serif" font-size="12.00">SelectBackward</text>
</g>
<!-- 1490481862016&#45;&gt;1490481861488 -->
<g id="edge48" class="edge"><title>1490481862016&#45;&gt;1490481861488</title>
<path fill="none" stroke="black" d="M269.821,-512.92C306.932,-503.642 363.324,-489.544 403.427,-479.518"/>
<polygon fill="black" stroke="black" points="404.397,-482.884 413.25,-477.063 402.699,-476.093 404.397,-482.884"/>
</g>
<!-- 1490481862928&#45;&gt;1490481862016 -->
<g id="edge49" class="edge"><title>1490481862928&#45;&gt;1490481862016</title>
<path fill="none" stroke="black" d="M231.5,-569.92C231.5,-562.908 231.5,-553.144 231.5,-544.465"/>
<polygon fill="black" stroke="black" points="235,-544.341 231.5,-534.341 228,-544.341 235,-544.341"/>
</g>
<!-- 1490481862448 -->
<g id="node49" class="node"><title>1490481862448</title>
<polygon fill="lightgrey" stroke="black" points="387.5,-534 295.5,-534 295.5,-513 387.5,-513 387.5,-534"/>
<text text-anchor="middle" x="341.5" y="-520.4" font-family="Times New Roman,serif" font-size="12.00">SelectBackward</text>
</g>
<!-- 1490481862448&#45;&gt;1490481861488 -->
<g id="edge51" class="edge"><title>1490481862448&#45;&gt;1490481861488</title>
<path fill="none" stroke="black" d="M360.661,-512.92C377.905,-504.297 403.476,-491.512 423.098,-481.701"/>
<polygon fill="black" stroke="black" points="424.811,-484.758 432.19,-477.155 421.68,-478.497 424.811,-484.758"/>
</g>
<!-- 1490481863120&#45;&gt;1490481862448 -->
<g id="edge52" class="edge"><title>1490481863120&#45;&gt;1490481862448</title>
<path fill="none" stroke="black" d="M341.5,-569.92C341.5,-562.908 341.5,-553.144 341.5,-544.465"/>
<polygon fill="black" stroke="black" points="345,-544.341 341.5,-534.341 338,-544.341 345,-544.341"/>
</g>
<!-- 1490481860768 -->
<g id="node51" class="node"><title>1490481860768</title>
<polygon fill="lightgrey" stroke="black" points="385.5,-135 297.5,-135 297.5,-114 385.5,-114 385.5,-135"/>
<text text-anchor="middle" x="341.5" y="-121.4" font-family="Times New Roman,serif" font-size="12.00">MulBackward0</text>
</g>
<!-- 1490481860768&#45;&gt;1490481651664 -->
<g id="edge54" class="edge"><title>1490481860768&#45;&gt;1490481651664</title>
<path fill="none" stroke="black" d="M360.661,-113.92C377.905,-105.297 403.476,-92.512 423.098,-82.7011"/>
<polygon fill="black" stroke="black" points="424.811,-85.7577 432.19,-78.155 421.68,-79.4967 424.811,-85.7577"/>
</g>
<!-- 1490481860672 -->
<g id="node52" class="node"><title>1490481860672</title>
<polygon fill="lightgrey" stroke="black" points="389.5,-249 293.5,-249 293.5,-228 389.5,-228 389.5,-249"/>
<text text-anchor="middle" x="341.5" y="-235.4" font-family="Times New Roman,serif" font-size="12.00">MeanBackward0</text>
</g>
<!-- 1490481860672&#45;&gt;1490481860768 -->
<g id="edge55" class="edge"><title>1490481860672&#45;&gt;1490481860768</title>
<path fill="none" stroke="black" d="M341.5,-227.951C341.5,-209.684 341.5,-169.455 341.5,-145.198"/>
<polygon fill="black" stroke="black" points="345,-145.025 341.5,-135.025 338,-145.025 345,-145.025"/>
</g>
<!-- 1490481861200 -->
<g id="node53" class="node"><title>1490481861200</title>
<polygon fill="lightgrey" stroke="black" points="386.5,-306 296.5,-306 296.5,-285 386.5,-285 386.5,-306"/>
<text text-anchor="middle" x="341.5" y="-292.4" font-family="Times New Roman,serif" font-size="12.00">StackBackward</text>
</g>
<!-- 1490481861200&#45;&gt;1490481860672 -->
<g id="edge56" class="edge"><title>1490481861200&#45;&gt;1490481860672</title>
<path fill="none" stroke="black" d="M341.5,-284.92C341.5,-277.908 341.5,-268.144 341.5,-259.465"/>
<polygon fill="black" stroke="black" points="345,-259.341 341.5,-249.341 338,-259.341 345,-259.341"/>
</g>
<!-- 1490481861392 -->
<g id="node54" class="node"><title>1490481861392</title>
<polygon fill="lightgrey" stroke="black" points="389.5,-363 293.5,-363 293.5,-342 389.5,-342 389.5,-363"/>
<text text-anchor="middle" x="341.5" y="-349.4" font-family="Times New Roman,serif" font-size="12.00">MeanBackward0</text>
</g>
<!-- 1490481861392&#45;&gt;1490481861200 -->
<g id="edge57" class="edge"><title>1490481861392&#45;&gt;1490481861200</title>
<path fill="none" stroke="black" d="M341.5,-341.92C341.5,-334.908 341.5,-325.144 341.5,-316.465"/>
<polygon fill="black" stroke="black" points="345,-316.341 341.5,-306.341 338,-316.341 345,-316.341"/>
</g>
<!-- 1490481862592&#45;&gt;1490481861392 -->
<g id="edge58" class="edge"><title>1490481862592&#45;&gt;1490481861392</title>
<path fill="none" stroke="black" d="M341.5,-398.92C341.5,-391.908 341.5,-382.144 341.5,-373.465"/>
<polygon fill="black" stroke="black" points="345,-373.341 341.5,-363.341 338,-373.341 345,-373.341"/>
</g>
<!-- 1490481860960 -->
<g id="node56" class="node"><title>1490481860960</title>
<polygon fill="lightgrey" stroke="black" points="609.5,-192 521.5,-192 521.5,-171 609.5,-171 609.5,-192"/>
<text text-anchor="middle" x="565.5" y="-178.4" font-family="Times New Roman,serif" font-size="12.00">MulBackward0</text>
</g>
<!-- 1490481860960&#45;&gt;1490481651568 -->
<g id="edge60" class="edge"><title>1490481860960&#45;&gt;1490481651568</title>
<path fill="none" stroke="black" d="M562.272,-170.93C553.223,-144.099 527.47,-67.7445 515.182,-31.3122"/>
<polygon fill="black" stroke="black" points="518.347,-29.7434 511.834,-21.3864 511.714,-31.9805 518.347,-29.7434"/>
</g>
<!-- 1490481860720 -->
<g id="node57" class="node"><title>1490481860720</title>
<polygon fill="lightgrey" stroke="black" points="636.5,-363 540.5,-363 540.5,-342 636.5,-342 636.5,-363"/>
<text text-anchor="middle" x="588.5" y="-349.4" font-family="Times New Roman,serif" font-size="12.00">MeanBackward0</text>
</g>
<!-- 1490481860720&#45;&gt;1490481860960 -->
<g id="edge61" class="edge"><title>1490481860720&#45;&gt;1490481860960</title>
<path fill="none" stroke="black" d="M587.198,-341.93C583.546,-315.099 573.155,-238.745 568.196,-202.312"/>
<polygon fill="black" stroke="black" points="571.662,-201.823 566.845,-192.386 564.726,-202.767 571.662,-201.823"/>
</g>
<!-- 1490481861296 -->
<g id="node58" class="node"><title>1490481861296</title>
<polygon fill="lightgrey" stroke="black" points="687.5,-420 597.5,-420 597.5,-399 687.5,-399 687.5,-420"/>
<text text-anchor="middle" x="642.5" y="-406.4" font-family="Times New Roman,serif" font-size="12.00">StackBackward</text>
</g>
<!-- 1490481861296&#45;&gt;1490481860720 -->
<g id="edge62" class="edge"><title>1490481861296&#45;&gt;1490481860720</title>
<path fill="none" stroke="black" d="M633.094,-398.92C625.445,-391.129 614.46,-379.94 605.306,-370.618"/>
<polygon fill="black" stroke="black" points="607.665,-368.024 598.162,-363.341 602.67,-372.929 607.665,-368.024"/>
</g>
<!-- 1490481863408 -->
<g id="node59" class="node"><title>1490481863408</title>
<polygon fill="lightgrey" stroke="black" points="718.5,-477 622.5,-477 622.5,-456 718.5,-456 718.5,-477"/>
<text text-anchor="middle" x="670.5" y="-463.4" font-family="Times New Roman,serif" font-size="12.00">MeanBackward0</text>
</g>
<!-- 1490481863408&#45;&gt;1490481861296 -->
<g id="edge63" class="edge"><title>1490481863408&#45;&gt;1490481861296</title>
<path fill="none" stroke="black" d="M665.623,-455.92C661.895,-448.597 656.638,-438.271 652.078,-429.315"/>
<polygon fill="black" stroke="black" points="655.166,-427.665 647.51,-420.341 648.928,-430.84 655.166,-427.665"/>
</g>
<!-- 1490481863792 -->
<g id="node60" class="node"><title>1490481863792</title>
<polygon fill="lightgrey" stroke="black" points="823.5,-534 735.5,-534 735.5,-513 823.5,-513 823.5,-534"/>
<text text-anchor="middle" x="779.5" y="-520.4" font-family="Times New Roman,serif" font-size="12.00">MulBackward0</text>
</g>
<!-- 1490481863792&#45;&gt;1490481863408 -->
<g id="edge64" class="edge"><title>1490481863792&#45;&gt;1490481863408</title>
<path fill="none" stroke="black" d="M760.514,-512.92C743.426,-504.297 718.087,-491.512 698.644,-481.701"/>
<polygon fill="black" stroke="black" points="700.139,-478.535 689.635,-477.155 696.986,-484.785 700.139,-478.535"/>
</g>
<!-- 1490481863936&#45;&gt;1490481863792 -->
<g id="edge65" class="edge"><title>1490481863936&#45;&gt;1490481863792</title>
<path fill="none" stroke="black" d="M777.848,-569.92C778.103,-562.908 778.458,-553.144 778.774,-544.465"/>
<polygon fill="black" stroke="black" points="782.276,-544.461 779.142,-534.341 775.281,-544.207 782.276,-544.461"/>
</g>
<!-- 1490481863984&#45;&gt;1490481863792 -->
<g id="edge67" class="edge"><title>1490481863984&#45;&gt;1490481863792</title>
<path fill="none" stroke="black" d="M785.576,-633.961C799.767,-624.957 818.967,-610.014 827.5,-591 836.038,-571.973 819.094,-552.95 803.031,-540.154"/>
<polygon fill="black" stroke="black" points="804.962,-537.229 794.851,-534.064 800.782,-542.843 804.962,-537.229"/>
</g>
</g>
</svg>
