<?xml version="1.0" encoding="UTF-8" standalone="no"?>
<!DOCTYPE svg PUBLIC "-//W3C//DTD SVG 1.1//EN"
 "http://www.w3.org/Graphics/SVG/1.1/DTD/svg11.dtd">
<!-- Generated by graphviz version 2.38.0 (20140413.2041)
 -->
<!-- Title: %3 Pages: 1 -->
<svg width="850pt" height="1252pt"
 viewBox="0.00 0.00 850.00 1252.00" xmlns="http://www.w3.org/2000/svg" xmlns:xlink="http://www.w3.org/1999/xlink">
<g id="graph0" class="graph" transform="scale(1 1) rotate(0) translate(4 1248)">
<title>%3</title>
<polygon fill="white" stroke="none" points="-4,4 -4,-1248 846,-1248 846,4 -4,4"/>
<!-- 2389625660176 -->
<g id="node1" class="node"><title>2389625660176</title>
<polygon fill="#caff70" stroke="black" points="634,-21 544,-21 544,-0 634,-0 634,-21"/>
<text text-anchor="middle" x="589" y="-7.4" font-family="Times New Roman,serif" font-size="12.00">AddBackward0</text>
</g>
<!-- 2389625660224 -->
<g id="node2" class="node"><title>2389625660224</title>
<polygon fill="lightgrey" stroke="black" points="580,-78 490,-78 490,-57 580,-57 580,-78"/>
<text text-anchor="middle" x="535" y="-64.4" font-family="Times New Roman,serif" font-size="12.00">AddBackward0</text>
</g>
<!-- 2389625660224&#45;&gt;2389625660176 -->
<g id="edge1" class="edge"><title>2389625660224&#45;&gt;2389625660176</title>
<path fill="none" stroke="black" d="M544.406,-56.9197C552.055,-49.1293 563.04,-37.9405 572.194,-28.6176"/>
<polygon fill="black" stroke="black" points="574.83,-30.9286 579.338,-21.3408 569.835,-26.0244 574.83,-30.9286"/>
</g>
<!-- 2389625660368 -->
<g id="node3" class="node"><title>2389625660368</title>
<polygon fill="lightgrey" stroke="black" points="573.5,-135 490.5,-135 490.5,-114 573.5,-114 573.5,-135"/>
<text text-anchor="middle" x="532" y="-121.4" font-family="Times New Roman,serif" font-size="12.00">NegBackward</text>
</g>
<!-- 2389625660368&#45;&gt;2389625660224 -->
<g id="edge2" class="edge"><title>2389625660368&#45;&gt;2389625660224</title>
<path fill="none" stroke="black" d="M532.523,-113.92C532.905,-106.908 533.438,-97.1442 533.911,-88.4652"/>
<polygon fill="black" stroke="black" points="537.413,-88.5166 534.463,-78.3408 530.424,-88.1353 537.413,-88.5166"/>
</g>
<!-- 2389625660464 -->
<g id="node4" class="node"><title>2389625660464</title>
<polygon fill="lightgrey" stroke="black" points="565,-192 477,-192 477,-171 565,-171 565,-192"/>
<text text-anchor="middle" x="521" y="-178.4" font-family="Times New Roman,serif" font-size="12.00">ViewBackward</text>
</g>
<!-- 2389625660464&#45;&gt;2389625660368 -->
<g id="edge3" class="edge"><title>2389625660464&#45;&gt;2389625660368</title>
<path fill="none" stroke="black" d="M522.916,-170.92C524.334,-163.83 526.315,-153.927 528.065,-145.176"/>
<polygon fill="black" stroke="black" points="531.503,-145.833 530.032,-135.341 524.639,-144.46 531.503,-145.833"/>
</g>
<!-- 2389625660560 -->
<g id="node5" class="node"><title>2389625660560</title>
<polygon fill="lightgrey" stroke="black" points="516.5,-249 435.5,-249 435.5,-228 516.5,-228 516.5,-249"/>
<text text-anchor="middle" x="476" y="-235.4" font-family="Times New Roman,serif" font-size="12.00">DotBackward</text>
</g>
<!-- 2389625660560&#45;&gt;2389625660464 -->
<g id="edge4" class="edge"><title>2389625660560&#45;&gt;2389625660464</title>
<path fill="none" stroke="black" d="M483.838,-227.92C490.085,-220.285 499.002,-209.387 506.535,-200.179"/>
<polygon fill="black" stroke="black" points="509.325,-202.297 512.948,-192.341 503.907,-197.864 509.325,-202.297"/>
</g>
<!-- 2389625660656 -->
<g id="node6" class="node"><title>2389625660656</title>
<polygon fill="lightgrey" stroke="black" points="256,-306 166,-306 166,-285 256,-285 256,-306"/>
<text text-anchor="middle" x="211" y="-292.4" font-family="Times New Roman,serif" font-size="12.00">StackBackward</text>
</g>
<!-- 2389625660656&#45;&gt;2389625660560 -->
<g id="edge5" class="edge"><title>2389625660656&#45;&gt;2389625660560</title>
<path fill="none" stroke="black" d="M256.254,-285.108C303.177,-275.369 376.38,-260.176 425.242,-250.035"/>
<polygon fill="black" stroke="black" points="426.201,-253.41 435.281,-247.951 424.778,-246.556 426.201,-253.41"/>
</g>
<!-- 2389625660752 -->
<g id="node7" class="node"><title>2389625660752</title>
<polygon fill="lightgrey" stroke="black" points="92,-363 0,-363 0,-342 92,-342 92,-363"/>
<text text-anchor="middle" x="46" y="-349.4" font-family="Times New Roman,serif" font-size="12.00">SelectBackward</text>
</g>
<!-- 2389625660752&#45;&gt;2389625660656 -->
<g id="edge6" class="edge"><title>2389625660752&#45;&gt;2389625660656</title>
<path fill="none" stroke="black" d="M74.7408,-341.92C101.867,-332.878 142.726,-319.258 172.628,-309.291"/>
<polygon fill="black" stroke="black" points="173.932,-312.545 182.312,-306.063 171.719,-305.905 173.932,-312.545"/>
</g>
<!-- 2389625660992 -->
<g id="node8" class="node"><title>2389625660992</title>
<polygon fill="lightgrey" stroke="black" points="92,-420 0,-420 0,-399 92,-399 92,-420"/>
<text text-anchor="middle" x="46" y="-406.4" font-family="Times New Roman,serif" font-size="12.00">SelectBackward</text>
</g>
<!-- 2389625660992&#45;&gt;2389625660752 -->
<g id="edge7" class="edge"><title>2389625660992&#45;&gt;2389625660752</title>
<path fill="none" stroke="black" d="M46,-398.92C46,-391.908 46,-382.144 46,-373.465"/>
<polygon fill="black" stroke="black" points="49.5001,-373.341 46,-363.341 42.5001,-373.341 49.5001,-373.341"/>
</g>
<!-- 2389625661088 -->
<g id="node9" class="node"><title>2389625661088</title>
<polygon fill="lightgrey" stroke="black" points="215.5,-477 96.5,-477 96.5,-456 215.5,-456 215.5,-477"/>
<text text-anchor="middle" x="156" y="-463.4" font-family="Times New Roman,serif" font-size="12.00">LogSoftmaxBackward</text>
</g>
<!-- 2389625661088&#45;&gt;2389625660992 -->
<g id="edge8" class="edge"><title>2389625661088&#45;&gt;2389625660992</title>
<path fill="none" stroke="black" d="M136.839,-455.92C119.595,-447.297 94.024,-434.512 74.4022,-424.701"/>
<polygon fill="black" stroke="black" points="75.8196,-421.497 65.31,-420.155 72.6891,-427.758 75.8196,-421.497"/>
</g>
<!-- 2389625661040 -->
<g id="node25" class="node"><title>2389625661040</title>
<polygon fill="lightgrey" stroke="black" points="202,-420 110,-420 110,-399 202,-399 202,-420"/>
<text text-anchor="middle" x="156" y="-406.4" font-family="Times New Roman,serif" font-size="12.00">SelectBackward</text>
</g>
<!-- 2389625661088&#45;&gt;2389625661040 -->
<g id="edge25" class="edge"><title>2389625661088&#45;&gt;2389625661040</title>
<path fill="none" stroke="black" d="M156,-455.92C156,-448.908 156,-439.144 156,-430.465"/>
<polygon fill="black" stroke="black" points="159.5,-430.341 156,-420.341 152.5,-430.341 159.5,-430.341"/>
</g>
<!-- 2389625661136 -->
<g id="node27" class="node"><title>2389625661136</title>
<polygon fill="lightgrey" stroke="black" points="312,-420 220,-420 220,-399 312,-399 312,-420"/>
<text text-anchor="middle" x="266" y="-406.4" font-family="Times New Roman,serif" font-size="12.00">SelectBackward</text>
</g>
<!-- 2389625661088&#45;&gt;2389625661136 -->
<g id="edge28" class="edge"><title>2389625661088&#45;&gt;2389625661136</title>
<path fill="none" stroke="black" d="M175.161,-455.92C192.405,-447.297 217.976,-434.512 237.598,-424.701"/>
<polygon fill="black" stroke="black" points="239.311,-427.758 246.69,-420.155 236.18,-421.497 239.311,-427.758"/>
</g>
<!-- 2389625661184 -->
<g id="node10" class="node"><title>2389625661184</title>
<polygon fill="lightgrey" stroke="black" points="206.5,-534 105.5,-534 105.5,-513 206.5,-513 206.5,-534"/>
<text text-anchor="middle" x="156" y="-520.4" font-family="Times New Roman,serif" font-size="12.00">AddmmBackward</text>
</g>
<!-- 2389625661184&#45;&gt;2389625661088 -->
<g id="edge9" class="edge"><title>2389625661184&#45;&gt;2389625661088</title>
<path fill="none" stroke="black" d="M156,-512.92C156,-505.908 156,-496.144 156,-487.465"/>
<polygon fill="black" stroke="black" points="159.5,-487.341 156,-477.341 152.5,-487.341 159.5,-487.341"/>
</g>
<!-- 2389625566352 -->
<g id="node11" class="node"><title>2389625566352</title>
<polygon fill="lightblue" stroke="black" points="93,-605 39,-605 39,-570 93,-570 93,-605"/>
<text text-anchor="middle" x="66" y="-577.4" font-family="Times New Roman,serif" font-size="12.00"> (3)</text>
</g>
<!-- 2389625566352&#45;&gt;2389625661184 -->
<g id="edge10" class="edge"><title>2389625566352&#45;&gt;2389625661184</title>
<path fill="none" stroke="black" d="M90.1183,-569.885C103.656,-560.559 120.434,-549.001 133.67,-539.883"/>
<polygon fill="black" stroke="black" points="135.934,-542.573 142.184,-534.018 131.963,-536.809 135.934,-542.573"/>
</g>
<!-- 2389625661280 -->
<g id="node12" class="node"><title>2389625661280</title>
<polygon fill="lightgrey" stroke="black" points="201,-598 111,-598 111,-577 201,-577 201,-598"/>
<text text-anchor="middle" x="156" y="-584.4" font-family="Times New Roman,serif" font-size="12.00">ReluBackward0</text>
</g>
<!-- 2389625661280&#45;&gt;2389625661184 -->
<g id="edge11" class="edge"><title>2389625661280&#45;&gt;2389625661184</title>
<path fill="none" stroke="black" d="M156,-576.813C156,-568.218 156,-555.388 156,-544.585"/>
<polygon fill="black" stroke="black" points="159.5,-544.324 156,-534.324 152.5,-544.324 159.5,-544.324"/>
</g>
<!-- 2389625661424 -->
<g id="node13" class="node"><title>2389625661424</title>
<polygon fill="lightgrey" stroke="black" points="206.5,-669 105.5,-669 105.5,-648 206.5,-648 206.5,-669"/>
<text text-anchor="middle" x="156" y="-655.4" font-family="Times New Roman,serif" font-size="12.00">AddmmBackward</text>
</g>
<!-- 2389625661424&#45;&gt;2389625661280 -->
<g id="edge12" class="edge"><title>2389625661424&#45;&gt;2389625661280</title>
<path fill="none" stroke="black" d="M156,-647.906C156,-637.71 156,-621.3 156,-608.308"/>
<polygon fill="black" stroke="black" points="159.5,-608.013 156,-598.013 152.5,-608.013 159.5,-608.013"/>
</g>
<!-- 2389625566688 -->
<g id="node14" class="node"><title>2389625566688</title>
<polygon fill="lightblue" stroke="black" points="93,-747 39,-747 39,-712 93,-712 93,-747"/>
<text text-anchor="middle" x="66" y="-719.4" font-family="Times New Roman,serif" font-size="12.00"> (32)</text>
</g>
<!-- 2389625566688&#45;&gt;2389625661424 -->
<g id="edge13" class="edge"><title>2389625566688&#45;&gt;2389625661424</title>
<path fill="none" stroke="black" d="M87.7865,-711.797C102.262,-700.699 121.15,-686.218 135.38,-675.309"/>
<polygon fill="black" stroke="black" points="137.75,-677.902 143.557,-669.04 133.491,-672.347 137.75,-677.902"/>
</g>
<!-- 2389625661520 -->
<g id="node15" class="node"><title>2389625661520</title>
<polygon fill="lightgrey" stroke="black" points="201,-740 111,-740 111,-719 201,-719 201,-740"/>
<text text-anchor="middle" x="156" y="-726.4" font-family="Times New Roman,serif" font-size="12.00">ReluBackward0</text>
</g>
<!-- 2389625661520&#45;&gt;2389625661424 -->
<g id="edge14" class="edge"><title>2389625661520&#45;&gt;2389625661424</title>
<path fill="none" stroke="black" d="M156,-718.906C156,-708.71 156,-692.3 156,-679.308"/>
<polygon fill="black" stroke="black" points="159.5,-679.013 156,-669.013 152.5,-679.013 159.5,-679.013"/>
</g>
<!-- 2389625661664 -->
<g id="node16" class="node"><title>2389625661664</title>
<polygon fill="lightgrey" stroke="black" points="206.5,-811 105.5,-811 105.5,-790 206.5,-790 206.5,-811"/>
<text text-anchor="middle" x="156" y="-797.4" font-family="Times New Roman,serif" font-size="12.00">AddmmBackward</text>
</g>
<!-- 2389625661664&#45;&gt;2389625661520 -->
<g id="edge15" class="edge"><title>2389625661664&#45;&gt;2389625661520</title>
<path fill="none" stroke="black" d="M156,-789.906C156,-779.71 156,-763.3 156,-750.308"/>
<polygon fill="black" stroke="black" points="159.5,-750.013 156,-740.013 152.5,-750.013 159.5,-750.013"/>
</g>
<!-- 2389625566544 -->
<g id="node17" class="node"><title>2389625566544</title>
<polygon fill="lightblue" stroke="black" points="143,-889 89,-889 89,-854 143,-854 143,-889"/>
<text text-anchor="middle" x="116" y="-861.4" font-family="Times New Roman,serif" font-size="12.00"> (64)</text>
</g>
<!-- 2389625566544&#45;&gt;2389625661664 -->
<g id="edge16" class="edge"><title>2389625566544&#45;&gt;2389625661664</title>
<path fill="none" stroke="black" d="M125.683,-853.797C131.631,-843.537 139.255,-830.385 145.37,-819.837"/>
<polygon fill="black" stroke="black" points="148.482,-821.447 150.47,-811.04 142.426,-817.936 148.482,-821.447"/>
</g>
<!-- 2389625660896 -->
<g id="node18" class="node"><title>2389625660896</title>
<polygon fill="lightgrey" stroke="black" points="232.5,-882 161.5,-882 161.5,-861 232.5,-861 232.5,-882"/>
<text text-anchor="middle" x="197" y="-868.4" font-family="Times New Roman,serif" font-size="12.00">TBackward</text>
</g>
<!-- 2389625660896&#45;&gt;2389625661664 -->
<g id="edge17" class="edge"><title>2389625660896&#45;&gt;2389625661664</title>
<path fill="none" stroke="black" d="M191.299,-860.906C184.996,-850.298 174.696,-832.963 166.844,-819.75"/>
<polygon fill="black" stroke="black" points="169.77,-817.822 161.652,-811.013 163.752,-821.397 169.77,-817.822"/>
</g>
<!-- 2389625566256 -->
<g id="node19" class="node"><title>2389625566256</title>
<polygon fill="lightblue" stroke="black" points="224,-960 170,-960 170,-925 224,-925 224,-960"/>
<text text-anchor="middle" x="197" y="-932.4" font-family="Times New Roman,serif" font-size="12.00"> (64, 7)</text>
</g>
<!-- 2389625566256&#45;&gt;2389625660896 -->
<g id="edge18" class="edge"><title>2389625566256&#45;&gt;2389625660896</title>
<path fill="none" stroke="black" d="M197,-924.797C197,-914.956 197,-902.453 197,-892.141"/>
<polygon fill="black" stroke="black" points="200.5,-892.04 197,-882.04 193.5,-892.04 200.5,-892.04"/>
</g>
<!-- 2389625661568 -->
<g id="node20" class="node"><title>2389625661568</title>
<polygon fill="lightgrey" stroke="black" points="290.5,-740 219.5,-740 219.5,-719 290.5,-719 290.5,-740"/>
<text text-anchor="middle" x="255" y="-726.4" font-family="Times New Roman,serif" font-size="12.00">TBackward</text>
</g>
<!-- 2389625661568&#45;&gt;2389625661424 -->
<g id="edge19" class="edge"><title>2389625661568&#45;&gt;2389625661424</title>
<path fill="none" stroke="black" d="M241.234,-718.906C224.832,-707.474 197.221,-688.23 177.882,-674.751"/>
<polygon fill="black" stroke="black" points="179.854,-671.859 169.649,-669.013 175.851,-677.602 179.854,-671.859"/>
</g>
<!-- 2389625565632 -->
<g id="node21" class="node"><title>2389625565632</title>
<polygon fill="lightblue" stroke="black" points="283.5,-818 226.5,-818 226.5,-783 283.5,-783 283.5,-818"/>
<text text-anchor="middle" x="255" y="-790.4" font-family="Times New Roman,serif" font-size="12.00"> (32, 64)</text>
</g>
<!-- 2389625565632&#45;&gt;2389625661568 -->
<g id="edge20" class="edge"><title>2389625565632&#45;&gt;2389625661568</title>
<path fill="none" stroke="black" d="M255,-782.797C255,-772.956 255,-760.453 255,-750.141"/>
<polygon fill="black" stroke="black" points="258.5,-750.04 255,-740.04 251.5,-750.04 258.5,-750.04"/>
</g>
<!-- 2389625661328 -->
<g id="node22" class="node"><title>2389625661328</title>
<polygon fill="lightgrey" stroke="black" points="290.5,-598 219.5,-598 219.5,-577 290.5,-577 290.5,-598"/>
<text text-anchor="middle" x="255" y="-584.4" font-family="Times New Roman,serif" font-size="12.00">TBackward</text>
</g>
<!-- 2389625661328&#45;&gt;2389625661184 -->
<g id="edge21" class="edge"><title>2389625661328&#45;&gt;2389625661184</title>
<path fill="none" stroke="black" d="M239.531,-576.813C223.548,-566.803 198.39,-551.047 179.857,-539.441"/>
<polygon fill="black" stroke="black" points="181.693,-536.461 171.36,-534.119 177.978,-542.394 181.693,-536.461"/>
</g>
<!-- 2389625566592 -->
<g id="node23" class="node"><title>2389625566592</title>
<polygon fill="lightblue" stroke="black" points="282,-676 228,-676 228,-641 282,-641 282,-676"/>
<text text-anchor="middle" x="255" y="-648.4" font-family="Times New Roman,serif" font-size="12.00"> (3, 32)</text>
</g>
<!-- 2389625566592&#45;&gt;2389625661328 -->
<g id="edge22" class="edge"><title>2389625566592&#45;&gt;2389625661328</title>
<path fill="none" stroke="black" d="M255,-640.797C255,-630.956 255,-618.453 255,-608.141"/>
<polygon fill="black" stroke="black" points="258.5,-608.04 255,-598.04 251.5,-608.04 258.5,-608.04"/>
</g>
<!-- 2389625660800 -->
<g id="node24" class="node"><title>2389625660800</title>
<polygon fill="lightgrey" stroke="black" points="202,-363 110,-363 110,-342 202,-342 202,-363"/>
<text text-anchor="middle" x="156" y="-349.4" font-family="Times New Roman,serif" font-size="12.00">SelectBackward</text>
</g>
<!-- 2389625660800&#45;&gt;2389625660656 -->
<g id="edge23" class="edge"><title>2389625660800&#45;&gt;2389625660656</title>
<path fill="none" stroke="black" d="M165.58,-341.92C173.371,-334.129 184.56,-322.94 193.882,-313.618"/>
<polygon fill="black" stroke="black" points="196.563,-315.887 201.159,-306.341 191.613,-310.937 196.563,-315.887"/>
</g>
<!-- 2389625661040&#45;&gt;2389625660800 -->
<g id="edge24" class="edge"><title>2389625661040&#45;&gt;2389625660800</title>
<path fill="none" stroke="black" d="M156,-398.92C156,-391.908 156,-382.144 156,-373.465"/>
<polygon fill="black" stroke="black" points="159.5,-373.341 156,-363.341 152.5,-373.341 159.5,-373.341"/>
</g>
<!-- 2389625660848 -->
<g id="node26" class="node"><title>2389625660848</title>
<polygon fill="lightgrey" stroke="black" points="312,-363 220,-363 220,-342 312,-342 312,-363"/>
<text text-anchor="middle" x="266" y="-349.4" font-family="Times New Roman,serif" font-size="12.00">SelectBackward</text>
</g>
<!-- 2389625660848&#45;&gt;2389625660656 -->
<g id="edge26" class="edge"><title>2389625660848&#45;&gt;2389625660656</title>
<path fill="none" stroke="black" d="M256.42,-341.92C248.629,-334.129 237.44,-322.94 228.118,-313.618"/>
<polygon fill="black" stroke="black" points="230.387,-310.937 220.841,-306.341 225.437,-315.887 230.387,-310.937"/>
</g>
<!-- 2389625661136&#45;&gt;2389625660848 -->
<g id="edge27" class="edge"><title>2389625661136&#45;&gt;2389625660848</title>
<path fill="none" stroke="black" d="M266,-398.92C266,-391.908 266,-382.144 266,-373.465"/>
<polygon fill="black" stroke="black" points="269.5,-373.341 266,-363.341 262.5,-373.341 269.5,-373.341"/>
</g>
<!-- 2389625660272 -->
<g id="node28" class="node"><title>2389625660272</title>
<polygon fill="lightgrey" stroke="black" points="689,-78 599,-78 599,-57 689,-57 689,-78"/>
<text text-anchor="middle" x="644" y="-64.4" font-family="Times New Roman,serif" font-size="12.00">SumBackward0</text>
</g>
<!-- 2389625660272&#45;&gt;2389625660176 -->
<g id="edge29" class="edge"><title>2389625660272&#45;&gt;2389625660176</title>
<path fill="none" stroke="black" d="M634.42,-56.9197C626.629,-49.1293 615.44,-37.9405 606.118,-28.6176"/>
<polygon fill="black" stroke="black" points="608.387,-25.937 598.841,-21.3408 603.437,-30.8868 608.387,-25.937"/>
</g>
<!-- 2389625660416 -->
<g id="node29" class="node"><title>2389625660416</title>
<polygon fill="lightgrey" stroke="black" points="684,-135 616,-135 616,-114 684,-114 684,-135"/>
<text text-anchor="middle" x="650" y="-121.4" font-family="Times New Roman,serif" font-size="12.00">CopySlices</text>
</g>
<!-- 2389625660416&#45;&gt;2389625660272 -->
<g id="edge30" class="edge"><title>2389625660416&#45;&gt;2389625660272</title>
<path fill="none" stroke="black" d="M648.955,-113.92C648.19,-106.908 647.125,-97.1442 646.178,-88.4652"/>
<polygon fill="black" stroke="black" points="649.637,-87.9023 645.074,-78.3408 642.679,-88.6614 649.637,-87.9023"/>
</g>
<!-- 2389625660608 -->
<g id="node30" class="node"><title>2389625660608</title>
<polygon fill="lightgrey" stroke="black" points="684,-192 616,-192 616,-171 684,-171 684,-192"/>
<text text-anchor="middle" x="650" y="-178.4" font-family="Times New Roman,serif" font-size="12.00">CopySlices</text>
</g>
<!-- 2389625660608&#45;&gt;2389625660416 -->
<g id="edge31" class="edge"><title>2389625660608&#45;&gt;2389625660416</title>
<path fill="none" stroke="black" d="M650,-170.92C650,-163.908 650,-154.144 650,-145.465"/>
<polygon fill="black" stroke="black" points="653.5,-145.341 650,-135.341 646.5,-145.341 653.5,-145.341"/>
</g>
<!-- 2389625661232 -->
<g id="node31" class="node"><title>2389625661232</title>
<polygon fill="lightgrey" stroke="black" points="610,-249 542,-249 542,-228 610,-228 610,-249"/>
<text text-anchor="middle" x="576" y="-235.4" font-family="Times New Roman,serif" font-size="12.00">CopySlices</text>
</g>
<!-- 2389625661232&#45;&gt;2389625660608 -->
<g id="edge32" class="edge"><title>2389625661232&#45;&gt;2389625660608</title>
<path fill="none" stroke="black" d="M588.89,-227.92C599.791,-219.818 615.637,-208.04 628.462,-198.508"/>
<polygon fill="black" stroke="black" points="630.821,-201.115 636.76,-192.341 626.646,-195.497 630.821,-201.115"/>
</g>
<!-- 2389625661616 -->
<g id="node32" class="node"><title>2389625661616</title>
<polygon fill="lightgrey" stroke="black" points="504,-306 436,-306 436,-285 504,-285 504,-306"/>
<text text-anchor="middle" x="470" y="-292.4" font-family="Times New Roman,serif" font-size="12.00">CopySlices</text>
</g>
<!-- 2389625661616&#45;&gt;2389625661232 -->
<g id="edge33" class="edge"><title>2389625661616&#45;&gt;2389625661232</title>
<path fill="none" stroke="black" d="M488.464,-284.92C505.006,-276.337 529.498,-263.628 548.372,-253.835"/>
<polygon fill="black" stroke="black" points="550.128,-256.867 557.392,-249.155 546.904,-250.654 550.128,-256.867"/>
</g>
<!-- 2389625661808 -->
<g id="node33" class="node"><title>2389625661808</title>
<polygon fill="lightgrey" stroke="black" points="408,-363 340,-363 340,-342 408,-342 408,-363"/>
<text text-anchor="middle" x="374" y="-349.4" font-family="Times New Roman,serif" font-size="12.00">CopySlices</text>
</g>
<!-- 2389625661808&#45;&gt;2389625661616 -->
<g id="edge34" class="edge"><title>2389625661808&#45;&gt;2389625661616</title>
<path fill="none" stroke="black" d="M390.722,-341.92C405.498,-333.454 427.279,-320.976 444.274,-311.239"/>
<polygon fill="black" stroke="black" points="446.211,-314.163 453.148,-306.155 442.731,-308.089 446.211,-314.163"/>
</g>
<!-- 2389625661952 -->
<g id="node34" class="node"><title>2389625661952</title>
<polygon fill="lightgrey" stroke="black" points="418,-420 330,-420 330,-399 418,-399 418,-420"/>
<text text-anchor="middle" x="374" y="-406.4" font-family="Times New Roman,serif" font-size="12.00">ViewBackward</text>
</g>
<!-- 2389625661952&#45;&gt;2389625661808 -->
<g id="edge35" class="edge"><title>2389625661952&#45;&gt;2389625661808</title>
<path fill="none" stroke="black" d="M374,-398.92C374,-391.908 374,-382.144 374,-373.465"/>
<polygon fill="black" stroke="black" points="377.5,-373.341 374,-363.341 370.5,-373.341 377.5,-373.341"/>
</g>
<!-- 2389625662048 -->
<g id="node35" class="node"><title>2389625662048</title>
<polygon fill="lightgrey" stroke="black" points="403,-477 315,-477 315,-456 403,-456 403,-477"/>
<text text-anchor="middle" x="359" y="-463.4" font-family="Times New Roman,serif" font-size="12.00">MulBackward0</text>
</g>
<!-- 2389625662048&#45;&gt;2389625661952 -->
<g id="edge36" class="edge"><title>2389625662048&#45;&gt;2389625661952</title>
<path fill="none" stroke="black" d="M361.613,-455.92C363.546,-448.83 366.247,-438.927 368.634,-430.176"/>
<polygon fill="black" stroke="black" points="372.062,-430.909 371.316,-420.341 365.308,-429.068 372.062,-430.909"/>
</g>
<!-- 2389625662144 -->
<g id="node36" class="node"><title>2389625662144</title>
<polygon fill="lightgrey" stroke="black" points="402,-534 312,-534 312,-513 402,-513 402,-534"/>
<text text-anchor="middle" x="357" y="-520.4" font-family="Times New Roman,serif" font-size="12.00">SumBackward0</text>
</g>
<!-- 2389625662144&#45;&gt;2389625662048 -->
<g id="edge37" class="edge"><title>2389625662144&#45;&gt;2389625662048</title>
<path fill="none" stroke="black" d="M357.348,-512.92C357.603,-505.908 357.958,-496.144 358.274,-487.465"/>
<polygon fill="black" stroke="black" points="361.776,-487.461 358.642,-477.341 354.781,-487.207 361.776,-487.461"/>
</g>
<!-- 2389625662240 -->
<g id="node37" class="node"><title>2389625662240</title>
<polygon fill="lightgrey" stroke="black" points="401.5,-598 312.5,-598 312.5,-577 401.5,-577 401.5,-598"/>
<text text-anchor="middle" x="357" y="-584.4" font-family="Times New Roman,serif" font-size="12.00">IndexBackward</text>
</g>
<!-- 2389625662240&#45;&gt;2389625662144 -->
<g id="edge38" class="edge"><title>2389625662240&#45;&gt;2389625662144</title>
<path fill="none" stroke="black" d="M357,-576.813C357,-568.218 357,-555.388 357,-544.585"/>
<polygon fill="black" stroke="black" points="360.5,-544.324 357,-534.324 353.5,-544.324 360.5,-544.324"/>
</g>
<!-- 2389625662336 -->
<g id="node38" class="node"><title>2389625662336</title>
<polygon fill="lightgrey" stroke="black" points="402,-669 310,-669 310,-648 402,-648 402,-669"/>
<text text-anchor="middle" x="356" y="-655.4" font-family="Times New Roman,serif" font-size="12.00">SelectBackward</text>
</g>
<!-- 2389625662336&#45;&gt;2389625662240 -->
<g id="edge39" class="edge"><title>2389625662336&#45;&gt;2389625662240</title>
<path fill="none" stroke="black" d="M356.139,-647.906C356.287,-637.71 356.525,-621.3 356.713,-608.308"/>
<polygon fill="black" stroke="black" points="360.217,-608.062 356.862,-598.013 353.217,-607.961 360.217,-608.062"/>
</g>
<!-- 2389625662480 -->
<g id="node39" class="node"><title>2389625662480</title>
<polygon fill="lightgrey" stroke="black" points="626.5,-740 525.5,-740 525.5,-719 626.5,-719 626.5,-740"/>
<text text-anchor="middle" x="576" y="-726.4" font-family="Times New Roman,serif" font-size="12.00">SigmoidBackward</text>
</g>
<!-- 2389625662480&#45;&gt;2389625662336 -->
<g id="edge40" class="edge"><title>2389625662480&#45;&gt;2389625662336</title>
<path fill="none" stroke="black" d="M545.41,-718.906C506.416,-706.676 438.914,-685.505 395.909,-672.017"/>
<polygon fill="black" stroke="black" points="396.919,-668.666 386.33,-669.013 394.825,-675.345 396.919,-668.666"/>
</g>
<!-- 2389625662624 -->
<g id="node58" class="node"><title>2389625662624</title>
<polygon fill="lightgrey" stroke="black" points="512,-669 420,-669 420,-648 512,-648 512,-669"/>
<text text-anchor="middle" x="466" y="-655.4" font-family="Times New Roman,serif" font-size="12.00">SelectBackward</text>
</g>
<!-- 2389625662480&#45;&gt;2389625662624 -->
<g id="edge60" class="edge"><title>2389625662480&#45;&gt;2389625662624</title>
<path fill="none" stroke="black" d="M560.705,-718.906C542.316,-707.371 511.248,-687.883 489.735,-674.388"/>
<polygon fill="black" stroke="black" points="491.496,-671.362 481.165,-669.013 487.777,-677.292 491.496,-671.362"/>
</g>
<!-- 2389625663008 -->
<g id="node63" class="node"><title>2389625663008</title>
<polygon fill="lightgrey" stroke="black" points="622,-669 530,-669 530,-648 622,-648 622,-669"/>
<text text-anchor="middle" x="576" y="-655.4" font-family="Times New Roman,serif" font-size="12.00">SelectBackward</text>
</g>
<!-- 2389625662480&#45;&gt;2389625663008 -->
<g id="edge66" class="edge"><title>2389625662480&#45;&gt;2389625663008</title>
<path fill="none" stroke="black" d="M576,-718.906C576,-708.71 576,-692.3 576,-679.308"/>
<polygon fill="black" stroke="black" points="579.5,-679.013 576,-669.013 572.5,-679.013 579.5,-679.013"/>
</g>
<!-- 2389625662432 -->
<g id="node68" class="node"><title>2389625662432</title>
<polygon fill="lightgrey" stroke="black" points="732,-669 640,-669 640,-648 732,-648 732,-669"/>
<text text-anchor="middle" x="686" y="-655.4" font-family="Times New Roman,serif" font-size="12.00">SelectBackward</text>
</g>
<!-- 2389625662480&#45;&gt;2389625662432 -->
<g id="edge72" class="edge"><title>2389625662480&#45;&gt;2389625662432</title>
<path fill="none" stroke="black" d="M591.295,-718.906C609.684,-707.371 640.752,-687.883 662.265,-674.388"/>
<polygon fill="black" stroke="black" points="664.223,-677.292 670.835,-669.013 660.504,-671.362 664.223,-677.292"/>
</g>
<!-- 2389625663344 -->
<g id="node73" class="node"><title>2389625663344</title>
<polygon fill="lightgrey" stroke="black" points="842,-669 750,-669 750,-648 842,-648 842,-669"/>
<text text-anchor="middle" x="796" y="-655.4" font-family="Times New Roman,serif" font-size="12.00">SelectBackward</text>
</g>
<!-- 2389625662480&#45;&gt;2389625663344 -->
<g id="edge78" class="edge"><title>2389625662480&#45;&gt;2389625663344</title>
<path fill="none" stroke="black" d="M606.59,-718.906C645.584,-706.676 713.086,-685.505 756.091,-672.017"/>
<polygon fill="black" stroke="black" points="757.175,-675.345 765.67,-669.013 755.081,-668.666 757.175,-675.345"/>
</g>
<!-- 2389625662576 -->
<g id="node40" class="node"><title>2389625662576</title>
<polygon fill="lightgrey" stroke="black" points="626.5,-811 525.5,-811 525.5,-790 626.5,-790 626.5,-811"/>
<text text-anchor="middle" x="576" y="-797.4" font-family="Times New Roman,serif" font-size="12.00">AddmmBackward</text>
</g>
<!-- 2389625662576&#45;&gt;2389625662480 -->
<g id="edge41" class="edge"><title>2389625662576&#45;&gt;2389625662480</title>
<path fill="none" stroke="black" d="M576,-789.906C576,-779.71 576,-763.3 576,-750.308"/>
<polygon fill="black" stroke="black" points="579.5,-750.013 576,-740.013 572.5,-750.013 579.5,-750.013"/>
</g>
<!-- 2389625964096 -->
<g id="node41" class="node"><title>2389625964096</title>
<polygon fill="lightblue" stroke="black" points="513,-889 459,-889 459,-854 513,-854 513,-889"/>
<text text-anchor="middle" x="486" y="-861.4" font-family="Times New Roman,serif" font-size="12.00"> (2)</text>
</g>
<!-- 2389625964096&#45;&gt;2389625662576 -->
<g id="edge42" class="edge"><title>2389625964096&#45;&gt;2389625662576</title>
<path fill="none" stroke="black" d="M507.786,-853.797C522.262,-842.699 541.15,-828.218 555.38,-817.309"/>
<polygon fill="black" stroke="black" points="557.75,-819.902 563.557,-811.04 553.491,-814.347 557.75,-819.902"/>
</g>
<!-- 2389625662672 -->
<g id="node42" class="node"><title>2389625662672</title>
<polygon fill="lightgrey" stroke="black" points="621,-882 531,-882 531,-861 621,-861 621,-882"/>
<text text-anchor="middle" x="576" y="-868.4" font-family="Times New Roman,serif" font-size="12.00">ReluBackward0</text>
</g>
<!-- 2389625662672&#45;&gt;2389625662576 -->
<g id="edge43" class="edge"><title>2389625662672&#45;&gt;2389625662576</title>
<path fill="none" stroke="black" d="M576,-860.906C576,-850.71 576,-834.3 576,-821.308"/>
<polygon fill="black" stroke="black" points="579.5,-821.013 576,-811.013 572.5,-821.013 579.5,-821.013"/>
</g>
<!-- 2389625662816 -->
<g id="node43" class="node"><title>2389625662816</title>
<polygon fill="lightgrey" stroke="black" points="626.5,-953 525.5,-953 525.5,-932 626.5,-932 626.5,-953"/>
<text text-anchor="middle" x="576" y="-939.4" font-family="Times New Roman,serif" font-size="12.00">AddmmBackward</text>
</g>
<!-- 2389625662816&#45;&gt;2389625662672 -->
<g id="edge44" class="edge"><title>2389625662816&#45;&gt;2389625662672</title>
<path fill="none" stroke="black" d="M576,-931.906C576,-921.71 576,-905.3 576,-892.308"/>
<polygon fill="black" stroke="black" points="579.5,-892.013 576,-882.013 572.5,-892.013 579.5,-892.013"/>
</g>
<!-- 2389625936624 -->
<g id="node44" class="node"><title>2389625936624</title>
<polygon fill="lightblue" stroke="black" points="513,-1031 459,-1031 459,-996 513,-996 513,-1031"/>
<text text-anchor="middle" x="486" y="-1003.4" font-family="Times New Roman,serif" font-size="12.00"> (16)</text>
</g>
<!-- 2389625936624&#45;&gt;2389625662816 -->
<g id="edge45" class="edge"><title>2389625936624&#45;&gt;2389625662816</title>
<path fill="none" stroke="black" d="M507.786,-995.797C522.262,-984.699 541.15,-970.218 555.38,-959.309"/>
<polygon fill="black" stroke="black" points="557.75,-961.902 563.557,-953.04 553.491,-956.347 557.75,-961.902"/>
</g>
<!-- 2389625662912 -->
<g id="node45" class="node"><title>2389625662912</title>
<polygon fill="lightgrey" stroke="black" points="621,-1024 531,-1024 531,-1003 621,-1003 621,-1024"/>
<text text-anchor="middle" x="576" y="-1010.4" font-family="Times New Roman,serif" font-size="12.00">ReluBackward0</text>
</g>
<!-- 2389625662912&#45;&gt;2389625662816 -->
<g id="edge46" class="edge"><title>2389625662912&#45;&gt;2389625662816</title>
<path fill="none" stroke="black" d="M576,-1002.91C576,-992.71 576,-976.3 576,-963.308"/>
<polygon fill="black" stroke="black" points="579.5,-963.013 576,-953.013 572.5,-963.013 579.5,-963.013"/>
</g>
<!-- 2389625663056 -->
<g id="node46" class="node"><title>2389625663056</title>
<polygon fill="lightgrey" stroke="black" points="626.5,-1095 525.5,-1095 525.5,-1074 626.5,-1074 626.5,-1095"/>
<text text-anchor="middle" x="576" y="-1081.4" font-family="Times New Roman,serif" font-size="12.00">AddmmBackward</text>
</g>
<!-- 2389625663056&#45;&gt;2389625662912 -->
<g id="edge47" class="edge"><title>2389625663056&#45;&gt;2389625662912</title>
<path fill="none" stroke="black" d="M576,-1073.91C576,-1063.71 576,-1047.3 576,-1034.31"/>
<polygon fill="black" stroke="black" points="579.5,-1034.01 576,-1024.01 572.5,-1034.01 579.5,-1034.01"/>
</g>
<!-- 2389625936144 -->
<g id="node47" class="node"><title>2389625936144</title>
<polygon fill="lightblue" stroke="black" points="563,-1173 509,-1173 509,-1138 563,-1138 563,-1173"/>
<text text-anchor="middle" x="536" y="-1145.4" font-family="Times New Roman,serif" font-size="12.00"> (64)</text>
</g>
<!-- 2389625936144&#45;&gt;2389625663056 -->
<g id="edge48" class="edge"><title>2389625936144&#45;&gt;2389625663056</title>
<path fill="none" stroke="black" d="M545.683,-1137.8C551.631,-1127.54 559.255,-1114.38 565.37,-1103.84"/>
<polygon fill="black" stroke="black" points="568.482,-1105.45 570.47,-1095.04 562.426,-1101.94 568.482,-1105.45"/>
</g>
<!-- 2389625663152 -->
<g id="node48" class="node"><title>2389625663152</title>
<polygon fill="lightgrey" stroke="black" points="652.5,-1166 581.5,-1166 581.5,-1145 652.5,-1145 652.5,-1166"/>
<text text-anchor="middle" x="617" y="-1152.4" font-family="Times New Roman,serif" font-size="12.00">TBackward</text>
</g>
<!-- 2389625663152&#45;&gt;2389625663056 -->
<g id="edge49" class="edge"><title>2389625663152&#45;&gt;2389625663056</title>
<path fill="none" stroke="black" d="M611.299,-1144.91C604.996,-1134.3 594.696,-1116.96 586.844,-1103.75"/>
<polygon fill="black" stroke="black" points="589.77,-1101.82 581.652,-1095.01 583.752,-1105.4 589.77,-1101.82"/>
</g>
<!-- 2389625935856 -->
<g id="node49" class="node"><title>2389625935856</title>
<polygon fill="lightblue" stroke="black" points="645.5,-1244 588.5,-1244 588.5,-1209 645.5,-1209 645.5,-1244"/>
<text text-anchor="middle" x="617" y="-1216.4" font-family="Times New Roman,serif" font-size="12.00"> (64, 10)</text>
</g>
<!-- 2389625935856&#45;&gt;2389625663152 -->
<g id="edge50" class="edge"><title>2389625935856&#45;&gt;2389625663152</title>
<path fill="none" stroke="black" d="M617,-1208.8C617,-1198.96 617,-1186.45 617,-1176.14"/>
<polygon fill="black" stroke="black" points="620.5,-1176.04 617,-1166.04 613.5,-1176.04 620.5,-1176.04"/>
</g>
<!-- 2389625662960 -->
<g id="node50" class="node"><title>2389625662960</title>
<polygon fill="lightgrey" stroke="black" points="710.5,-1024 639.5,-1024 639.5,-1003 710.5,-1003 710.5,-1024"/>
<text text-anchor="middle" x="675" y="-1010.4" font-family="Times New Roman,serif" font-size="12.00">TBackward</text>
</g>
<!-- 2389625662960&#45;&gt;2389625662816 -->
<g id="edge51" class="edge"><title>2389625662960&#45;&gt;2389625662816</title>
<path fill="none" stroke="black" d="M661.234,-1002.91C644.832,-991.474 617.221,-972.23 597.882,-958.751"/>
<polygon fill="black" stroke="black" points="599.854,-955.859 589.649,-953.013 595.851,-961.602 599.854,-955.859"/>
</g>
<!-- 2389625936480 -->
<g id="node51" class="node"><title>2389625936480</title>
<polygon fill="lightblue" stroke="black" points="703.5,-1102 646.5,-1102 646.5,-1067 703.5,-1067 703.5,-1102"/>
<text text-anchor="middle" x="675" y="-1074.4" font-family="Times New Roman,serif" font-size="12.00"> (16, 64)</text>
</g>
<!-- 2389625936480&#45;&gt;2389625662960 -->
<g id="edge52" class="edge"><title>2389625936480&#45;&gt;2389625662960</title>
<path fill="none" stroke="black" d="M675,-1066.8C675,-1056.96 675,-1044.45 675,-1034.14"/>
<polygon fill="black" stroke="black" points="678.5,-1034.04 675,-1024.04 671.5,-1034.04 678.5,-1034.04"/>
</g>
<!-- 2389625662720 -->
<g id="node52" class="node"><title>2389625662720</title>
<polygon fill="lightgrey" stroke="black" points="710.5,-882 639.5,-882 639.5,-861 710.5,-861 710.5,-882"/>
<text text-anchor="middle" x="675" y="-868.4" font-family="Times New Roman,serif" font-size="12.00">TBackward</text>
</g>
<!-- 2389625662720&#45;&gt;2389625662576 -->
<g id="edge53" class="edge"><title>2389625662720&#45;&gt;2389625662576</title>
<path fill="none" stroke="black" d="M661.234,-860.906C644.832,-849.474 617.221,-830.23 597.882,-816.751"/>
<polygon fill="black" stroke="black" points="599.854,-813.859 589.649,-811.013 595.851,-819.602 599.854,-813.859"/>
</g>
<!-- 2389625339616 -->
<g id="node53" class="node"><title>2389625339616</title>
<polygon fill="lightblue" stroke="black" points="702,-960 648,-960 648,-925 702,-925 702,-960"/>
<text text-anchor="middle" x="675" y="-932.4" font-family="Times New Roman,serif" font-size="12.00"> (2, 16)</text>
</g>
<!-- 2389625339616&#45;&gt;2389625662720 -->
<g id="edge54" class="edge"><title>2389625339616&#45;&gt;2389625662720</title>
<path fill="none" stroke="black" d="M675,-924.797C675,-914.956 675,-902.453 675,-892.141"/>
<polygon fill="black" stroke="black" points="678.5,-892.04 675,-882.04 671.5,-892.04 678.5,-892.04"/>
</g>
<!-- 2389625661856 -->
<g id="node54" class="node"><title>2389625661856</title>
<polygon fill="lightgrey" stroke="black" points="514,-363 426,-363 426,-342 514,-342 514,-363"/>
<text text-anchor="middle" x="470" y="-349.4" font-family="Times New Roman,serif" font-size="12.00">ViewBackward</text>
</g>
<!-- 2389625661856&#45;&gt;2389625661616 -->
<g id="edge55" class="edge"><title>2389625661856&#45;&gt;2389625661616</title>
<path fill="none" stroke="black" d="M470,-341.92C470,-334.908 470,-325.144 470,-316.465"/>
<polygon fill="black" stroke="black" points="473.5,-316.341 470,-306.341 466.5,-316.341 473.5,-316.341"/>
</g>
<!-- 2389625662000 -->
<g id="node55" class="node"><title>2389625662000</title>
<polygon fill="lightgrey" stroke="black" points="512,-477 424,-477 424,-456 512,-456 512,-477"/>
<text text-anchor="middle" x="468" y="-463.4" font-family="Times New Roman,serif" font-size="12.00">MulBackward0</text>
</g>
<!-- 2389625662000&#45;&gt;2389625661856 -->
<g id="edge56" class="edge"><title>2389625662000&#45;&gt;2389625661856</title>
<path fill="none" stroke="black" d="M468.171,-455.951C468.497,-437.684 469.215,-397.455 469.648,-373.198"/>
<polygon fill="black" stroke="black" points="473.151,-373.086 469.83,-363.025 466.152,-372.961 473.151,-373.086"/>
</g>
<!-- 2389625662192 -->
<g id="node56" class="node"><title>2389625662192</title>
<polygon fill="lightgrey" stroke="black" points="512,-534 422,-534 422,-513 512,-513 512,-534"/>
<text text-anchor="middle" x="467" y="-520.4" font-family="Times New Roman,serif" font-size="12.00">SumBackward0</text>
</g>
<!-- 2389625662192&#45;&gt;2389625662000 -->
<g id="edge57" class="edge"><title>2389625662192&#45;&gt;2389625662000</title>
<path fill="none" stroke="black" d="M467.174,-512.92C467.302,-505.908 467.479,-496.144 467.637,-487.465"/>
<polygon fill="black" stroke="black" points="471.139,-487.403 467.821,-477.341 464.14,-487.276 471.139,-487.403"/>
</g>
<!-- 2389625662384 -->
<g id="node57" class="node"><title>2389625662384</title>
<polygon fill="lightgrey" stroke="black" points="511.5,-598 422.5,-598 422.5,-577 511.5,-577 511.5,-598"/>
<text text-anchor="middle" x="467" y="-584.4" font-family="Times New Roman,serif" font-size="12.00">IndexBackward</text>
</g>
<!-- 2389625662384&#45;&gt;2389625662192 -->
<g id="edge58" class="edge"><title>2389625662384&#45;&gt;2389625662192</title>
<path fill="none" stroke="black" d="M467,-576.813C467,-568.218 467,-555.388 467,-544.585"/>
<polygon fill="black" stroke="black" points="470.5,-544.324 467,-534.324 463.5,-544.324 470.5,-544.324"/>
</g>
<!-- 2389625662624&#45;&gt;2389625662384 -->
<g id="edge59" class="edge"><title>2389625662624&#45;&gt;2389625662384</title>
<path fill="none" stroke="black" d="M466.139,-647.906C466.287,-637.71 466.525,-621.3 466.713,-608.308"/>
<polygon fill="black" stroke="black" points="470.217,-608.062 466.862,-598.013 463.217,-607.961 470.217,-608.062"/>
</g>
<!-- 2389625661712 -->
<g id="node59" class="node"><title>2389625661712</title>
<polygon fill="lightgrey" stroke="black" points="620,-306 532,-306 532,-285 620,-285 620,-306"/>
<text text-anchor="middle" x="576" y="-292.4" font-family="Times New Roman,serif" font-size="12.00">ViewBackward</text>
</g>
<!-- 2389625661712&#45;&gt;2389625661232 -->
<g id="edge61" class="edge"><title>2389625661712&#45;&gt;2389625661232</title>
<path fill="none" stroke="black" d="M576,-284.92C576,-277.908 576,-268.144 576,-259.465"/>
<polygon fill="black" stroke="black" points="579.5,-259.341 576,-249.341 572.5,-259.341 579.5,-259.341"/>
</g>
<!-- 2389625661904 -->
<g id="node60" class="node"><title>2389625661904</title>
<polygon fill="lightgrey" stroke="black" points="620,-477 532,-477 532,-456 620,-456 620,-477"/>
<text text-anchor="middle" x="576" y="-463.4" font-family="Times New Roman,serif" font-size="12.00">MulBackward0</text>
</g>
<!-- 2389625661904&#45;&gt;2389625661712 -->
<g id="edge62" class="edge"><title>2389625661904&#45;&gt;2389625661712</title>
<path fill="none" stroke="black" d="M576,-455.93C576,-429.215 576,-353.402 576,-316.786"/>
<polygon fill="black" stroke="black" points="579.5,-316.386 576,-306.386 572.5,-316.386 579.5,-316.386"/>
</g>
<!-- 2389625662288 -->
<g id="node61" class="node"><title>2389625662288</title>
<polygon fill="lightgrey" stroke="black" points="621,-534 531,-534 531,-513 621,-513 621,-534"/>
<text text-anchor="middle" x="576" y="-520.4" font-family="Times New Roman,serif" font-size="12.00">SumBackward0</text>
</g>
<!-- 2389625662288&#45;&gt;2389625661904 -->
<g id="edge63" class="edge"><title>2389625662288&#45;&gt;2389625661904</title>
<path fill="none" stroke="black" d="M576,-512.92C576,-505.908 576,-496.144 576,-487.465"/>
<polygon fill="black" stroke="black" points="579.5,-487.341 576,-477.341 572.5,-487.341 579.5,-487.341"/>
</g>
<!-- 2389625662768 -->
<g id="node62" class="node"><title>2389625662768</title>
<polygon fill="lightgrey" stroke="black" points="620.5,-598 531.5,-598 531.5,-577 620.5,-577 620.5,-598"/>
<text text-anchor="middle" x="576" y="-584.4" font-family="Times New Roman,serif" font-size="12.00">IndexBackward</text>
</g>
<!-- 2389625662768&#45;&gt;2389625662288 -->
<g id="edge64" class="edge"><title>2389625662768&#45;&gt;2389625662288</title>
<path fill="none" stroke="black" d="M576,-576.813C576,-568.218 576,-555.388 576,-544.585"/>
<polygon fill="black" stroke="black" points="579.5,-544.324 576,-534.324 572.5,-544.324 579.5,-544.324"/>
</g>
<!-- 2389625663008&#45;&gt;2389625662768 -->
<g id="edge65" class="edge"><title>2389625663008&#45;&gt;2389625662768</title>
<path fill="none" stroke="black" d="M576,-647.906C576,-637.71 576,-621.3 576,-608.308"/>
<polygon fill="black" stroke="black" points="579.5,-608.013 576,-598.013 572.5,-608.013 579.5,-608.013"/>
</g>
<!-- 2389625661376 -->
<g id="node64" class="node"><title>2389625661376</title>
<polygon fill="lightgrey" stroke="black" points="721,-249 633,-249 633,-228 721,-228 721,-249"/>
<text text-anchor="middle" x="677" y="-235.4" font-family="Times New Roman,serif" font-size="12.00">ViewBackward</text>
</g>
<!-- 2389625661376&#45;&gt;2389625660608 -->
<g id="edge67" class="edge"><title>2389625661376&#45;&gt;2389625660608</title>
<path fill="none" stroke="black" d="M672.297,-227.92C668.74,-220.675 663.741,-210.49 659.377,-201.601"/>
<polygon fill="black" stroke="black" points="662.38,-199.775 654.831,-192.341 656.096,-202.86 662.38,-199.775"/>
</g>
<!-- 2389625661760 -->
<g id="node65" class="node"><title>2389625661760</title>
<polygon fill="lightgrey" stroke="black" points="727,-477 639,-477 639,-456 727,-456 727,-477"/>
<text text-anchor="middle" x="683" y="-463.4" font-family="Times New Roman,serif" font-size="12.00">MulBackward0</text>
</g>
<!-- 2389625661760&#45;&gt;2389625661376 -->
<g id="edge68" class="edge"><title>2389625661760&#45;&gt;2389625661376</title>
<path fill="none" stroke="black" d="M682.742,-455.789C681.832,-421.524 678.761,-305.834 677.523,-259.214"/>
<polygon fill="black" stroke="black" points="681.021,-259.078 677.257,-249.175 674.024,-259.264 681.021,-259.078"/>
</g>
<!-- 2389625662528 -->
<g id="node66" class="node"><title>2389625662528</title>
<polygon fill="lightgrey" stroke="black" points="729,-534 639,-534 639,-513 729,-513 729,-534"/>
<text text-anchor="middle" x="684" y="-520.4" font-family="Times New Roman,serif" font-size="12.00">SumBackward0</text>
</g>
<!-- 2389625662528&#45;&gt;2389625661760 -->
<g id="edge69" class="edge"><title>2389625662528&#45;&gt;2389625661760</title>
<path fill="none" stroke="black" d="M683.826,-512.92C683.698,-505.908 683.521,-496.144 683.363,-487.465"/>
<polygon fill="black" stroke="black" points="686.86,-487.276 683.179,-477.341 679.861,-487.403 686.86,-487.276"/>
</g>
<!-- 2389625663104 -->
<g id="node67" class="node"><title>2389625663104</title>
<polygon fill="lightgrey" stroke="black" points="729.5,-598 640.5,-598 640.5,-577 729.5,-577 729.5,-598"/>
<text text-anchor="middle" x="685" y="-584.4" font-family="Times New Roman,serif" font-size="12.00">IndexBackward</text>
</g>
<!-- 2389625663104&#45;&gt;2389625662528 -->
<g id="edge70" class="edge"><title>2389625663104&#45;&gt;2389625662528</title>
<path fill="none" stroke="black" d="M684.844,-576.813C684.705,-568.218 684.498,-555.388 684.324,-544.585"/>
<polygon fill="black" stroke="black" points="687.819,-544.266 684.158,-534.324 680.82,-544.379 687.819,-544.266"/>
</g>
<!-- 2389625662432&#45;&gt;2389625663104 -->
<g id="edge71" class="edge"><title>2389625662432&#45;&gt;2389625663104</title>
<path fill="none" stroke="black" d="M685.861,-647.906C685.713,-637.71 685.475,-621.3 685.287,-608.308"/>
<polygon fill="black" stroke="black" points="688.783,-607.961 685.138,-598.013 681.783,-608.062 688.783,-607.961"/>
</g>
<!-- 2389625660704 -->
<g id="node69" class="node"><title>2389625660704</title>
<polygon fill="lightgrey" stroke="black" points="812,-192 724,-192 724,-171 812,-171 812,-192"/>
<text text-anchor="middle" x="768" y="-178.4" font-family="Times New Roman,serif" font-size="12.00">ViewBackward</text>
</g>
<!-- 2389625660704&#45;&gt;2389625660416 -->
<g id="edge73" class="edge"><title>2389625660704&#45;&gt;2389625660416</title>
<path fill="none" stroke="black" d="M747.446,-170.92C728.779,-162.219 701.017,-149.279 679.895,-139.434"/>
<polygon fill="black" stroke="black" points="681.257,-136.207 670.714,-135.155 678.3,-142.552 681.257,-136.207"/>
</g>
<!-- 2389625661472 -->
<g id="node70" class="node"><title>2389625661472</title>
<polygon fill="lightgrey" stroke="black" points="836,-477 748,-477 748,-456 836,-456 836,-477"/>
<text text-anchor="middle" x="792" y="-463.4" font-family="Times New Roman,serif" font-size="12.00">MulBackward0</text>
</g>
<!-- 2389625661472&#45;&gt;2389625660704 -->
<g id="edge74" class="edge"><title>2389625661472&#45;&gt;2389625660704</title>
<path fill="none" stroke="black" d="M788.754,-455.739C782.634,-436.44 770,-391.943 770,-353.5 770,-353.5 770,-353.5 770,-294.5 770,-262.206 769.159,-224.684 768.567,-202.303"/>
<polygon fill="black" stroke="black" points="772.06,-201.987 768.287,-192.087 765.063,-202.18 772.06,-201.987"/>
</g>
<!-- 2389625662864 -->
<g id="node71" class="node"><title>2389625662864</title>
<polygon fill="lightgrey" stroke="black" points="839,-534 749,-534 749,-513 839,-513 839,-534"/>
<text text-anchor="middle" x="794" y="-520.4" font-family="Times New Roman,serif" font-size="12.00">SumBackward0</text>
</g>
<!-- 2389625662864&#45;&gt;2389625661472 -->
<g id="edge75" class="edge"><title>2389625662864&#45;&gt;2389625661472</title>
<path fill="none" stroke="black" d="M793.652,-512.92C793.397,-505.908 793.042,-496.144 792.726,-487.465"/>
<polygon fill="black" stroke="black" points="796.219,-487.207 792.358,-477.341 789.224,-487.461 796.219,-487.207"/>
</g>
<!-- 2389625663248 -->
<g id="node72" class="node"><title>2389625663248</title>
<polygon fill="lightgrey" stroke="black" points="839.5,-598 750.5,-598 750.5,-577 839.5,-577 839.5,-598"/>
<text text-anchor="middle" x="795" y="-584.4" font-family="Times New Roman,serif" font-size="12.00">IndexBackward</text>
</g>
<!-- 2389625663248&#45;&gt;2389625662864 -->
<g id="edge76" class="edge"><title>2389625663248&#45;&gt;2389625662864</title>
<path fill="none" stroke="black" d="M794.844,-576.813C794.705,-568.218 794.498,-555.388 794.324,-544.585"/>
<polygon fill="black" stroke="black" points="797.819,-544.266 794.158,-534.324 790.82,-544.379 797.819,-544.266"/>
</g>
<!-- 2389625663344&#45;&gt;2389625663248 -->
<g id="edge77" class="edge"><title>2389625663344&#45;&gt;2389625663248</title>
<path fill="none" stroke="black" d="M795.861,-647.906C795.713,-637.71 795.475,-621.3 795.287,-608.308"/>
<polygon fill="black" stroke="black" points="798.783,-607.961 795.138,-598.013 791.783,-608.062 798.783,-607.961"/>
</g>
</g>
</svg>
